<?xml version="1.0" encoding="UTF-8" standalone="no"?>
<svg role="presentation" focusable="false" viewBox="0 0 42.9 38.8" xmlns="http://www.w3.org/2000/svg">
  <rect fill="none" width="42.9" height="38.8"/>
  <path fill="#f3b00d"
     d="m 0,22.86705 h 42.892834 v 3.84563 H 0 Z" />
  <path fill="#1d337a"
     d="M 0,3.84563 H 42.892834 V 0 H 0 Z" />
  <path fill="#1d337a"
     d="M 21.076567,8.0824909 18.815614,18.652418 h -2.73438 L 18.342187,8.0824909 Z m 11.504436,6.8251911 1.439686,-3.969455 0.827969,3.969455 z m 3.052586,3.744736 h 2.528358 L 35.952853,8.0824909 h -2.332567 c -0.525639,0 -0.968728,0.3048 -1.164872,0.7747 l -4.103158,9.7952271 h 2.871964 l 0.570088,-1.578327 h 3.50767 z m -7.138811,-3.450872 c 0.01199,-2.789414 -3.856214,-2.94393 -3.830461,-4.190294 0.0085,-0.378883 0.369358,-0.782108 1.159228,-0.885472 0.391583,-0.05045 1.472141,-0.09102 2.696986,0.473075 l 0.479072,-2.2422558 c -0.657931,-0.238125 -1.504244,-0.4670777 -2.557639,-0.4670777 -2.703336,0 -4.605161,1.4358055 -4.62033,3.4935585 -0.01729,1.521883 1.358547,2.370314 2.392891,2.877255 1.066447,0.517878 1.423811,0.850195 1.418872,1.313039 -0.0078,0.709083 -0.8509,1.023056 -1.635477,1.03505 -1.375834,0.02152 -2.173111,-0.371828 -2.808464,-0.668161 l -0.496358,2.317397 c 0.639938,0.292806 1.818922,0.547864 3.039886,0.560564 2.87408,0 4.753327,-1.418872 4.761794,-3.616678 M 17.1692,8.0824909 12.738664,18.652418 H 9.8483561 L 7.667484,10.216796 C 7.5355451,9.6982131 7.4201867,9.5073603 7.0180201,9.2882853 6.3607951,8.9309214 5.2749451,8.5968409 4.3206813,8.3890548 l 0.064558,-0.3065639 h 4.6531388 c 0.5926666,0 1.1260669,0.3944055 1.2615339,1.0770305 l 1.151819,6.1171666 2.8448,-7.1941971 z" />
  <path fill="#1d337a"
     d="m 39.441758,37.066668 v 0.582789 h -0.0038 c -0.04026,-0.08052 -0.141864,-0.162951 -0.30098,-0.162951 -0.226215,0 -0.416005,0.191707 -0.414088,0.498439 0,0.274141 0.168703,0.463931 0.396834,0.463931 0.170619,0 0.279892,-0.09394 0.327819,-0.195542 h 0.0038 l 0.0077,0.174454 h 0.08243 c -0.0058,-0.06518 -0.0077,-0.145698 -0.0077,-0.214712 v -1.146408 z m 0,0.989208 c 0,0.02876 -0.0019,0.05176 -0.0096,0.07668 -0.03834,0.151449 -0.162951,0.239634 -0.295228,0.239634 -0.218546,0 -0.322068,-0.18979 -0.322068,-0.396834 0,-0.237716 0.126526,-0.41217 0.327819,-0.41217 0.149531,0 0.258804,0.101605 0.289477,0.224297 0.0077,0.02492 0.0096,0.05943 0.0096,0.08435 z m -0.879936,-0.09777 c 0.0038,-0.01725 0.0038,-0.03067 0.0038,-0.0556 0,-0.132278 -0.05751,-0.416005 -0.358492,-0.416005 -0.237717,0 -0.414088,0.191707 -0.414088,0.498439 0,0.270306 0.164868,0.462013 0.429424,0.462013 0.161034,0 0.25497,-0.04026 0.289478,-0.05943 l -0.023,-0.07093 c -0.05176,0.02492 -0.120776,0.05176 -0.25497,0.05176 -0.191707,0 -0.350824,-0.116942 -0.350824,-0.410253 z m -0.674808,-0.07285 c 0.01725,-0.141863 0.105439,-0.322068 0.308648,-0.322068 0.22238,0 0.276058,0.193624 0.274141,0.322068 z m -0.56361,-0.546364 v 0.168702 h -0.155283 v 0.07477 h 0.155283 v 0.580872 c 0,0.09394 0.01534,0.172536 0.05751,0.220463 0.03451,0.04409 0.0901,0.06518 0.157199,0.06518 0.0556,0 0.09777,-0.0096 0.128444,-0.023 l -0.0115,-0.06902 c -0.023,0.0077 -0.05751,0.01342 -0.105439,0.01342 -0.09777,0 -0.134195,-0.07285 -0.134195,-0.18979 V 37.58236 h 0.262638 v -0.07477 h -0.262638 v -0.203209 z m -1.094645,1.468476 h 0.09202 v -0.529112 h 0.0038 c 0.06326,0.11119 0.180204,0.17062 0.312482,0.17062 0.22238,0 0.417921,-0.168703 0.417921,-0.496522 0,-0.270306 -0.159116,-0.465848 -0.396833,-0.465848 -0.159117,0 -0.272224,0.07477 -0.339321,0.195542 h -0.0038 l -0.0058,-0.174454 h -0.08818 c 0.0058,0.08819 0.0077,0.178288 0.0077,0.293312 z m 0.09202,-0.922111 c 0,-0.02492 0.0077,-0.05368 0.01342,-0.0786 0.04026,-0.151448 0.170619,-0.243468 0.304814,-0.243468 0.208961,0 0.323985,0.185956 0.323985,0.393 0,0.245385 -0.120775,0.416004 -0.331653,0.416004 -0.141863,0 -0.264556,-0.09202 -0.302897,-0.233883 -0.0058,-0.023 -0.0077,-0.04793 -0.0077,-0.07285 z m -0.327819,0.07285 c 0.0038,-0.01725 0.0038,-0.03067 0.0038,-0.0556 0,-0.132278 -0.05751,-0.416005 -0.358492,-0.416005 -0.237717,0 -0.414088,0.191707 -0.414088,0.498439 0,0.270306 0.164869,0.462013 0.429424,0.462013 0.161034,0 0.25497,-0.04026 0.289478,-0.05943 l -0.02301,-0.07093 c -0.05176,0.02492 -0.120775,0.05176 -0.25497,0.05176 -0.191707,0 -0.350824,-0.116942 -0.350824,-0.410253 z m -0.674809,-0.07285 c 0.01725,-0.141863 0.105439,-0.322068 0.308648,-0.322068 0.22238,0 0.276058,0.193624 0.274141,0.322068 z m -0.262636,0.429425 c -0.04984,0.023 -0.120776,0.05368 -0.230049,0.05368 -0.212795,0 -0.364243,-0.1572 -0.364243,-0.398751 0,-0.214712 0.126526,-0.404502 0.373829,-0.404502 0.101604,0 0.172536,0.02876 0.216628,0.05368 l 0.03259,-0.07477 c -0.03451,-0.02492 -0.128444,-0.05751 -0.241551,-0.05751 -0.274141,0 -0.473516,0.199376 -0.473516,0.49077 0,0.276058 0.17637,0.469682 0.440926,0.469682 0.134195,0 0.230048,-0.04026 0.270306,-0.05943 z m -0.855011,0 c -0.04984,0.023 -0.120776,0.05368 -0.230049,0.05368 -0.212795,0 -0.364243,-0.1572 -0.364243,-0.398751 0,-0.214712 0.126527,-0.404502 0.373829,-0.404502 0.101604,0 0.172536,0.02876 0.216628,0.05368 l 0.03259,-0.07477 c -0.03451,-0.02492 -0.128444,-0.05751 -0.241551,-0.05751 -0.274141,0 -0.473516,0.199376 -0.473516,0.49077 0,0.276058 0.17637,0.469682 0.440926,0.469682 0.134195,0 0.230048,-0.04026 0.270307,-0.05943 z m -0.906771,-0.465848 c 0,-0.162951 -0.05176,-0.362327 -0.318233,-0.362327 -0.08243,0 -0.185956,0.02301 -0.270307,0.0786 l 0.02876,0.0671 c 0.0671,-0.04793 0.151448,-0.06902 0.231965,-0.06902 0.218546,-0.0019 0.2358,0.180205 0.2358,0.270307 v 0.02492 c -0.375746,-0.0038 -0.561702,0.12461 -0.561702,0.337404 0,0.122693 0.08435,0.253054 0.270307,0.253054 0.147615,0 0.249219,-0.08243 0.295229,-0.153366 h 0.0038 l 0.01342,0.132278 h 0.08435 c -0.0115,-0.07093 -0.01342,-0.145698 -0.01342,-0.218546 z m -0.09202,0.283726 c 0,0.01534 -0.0019,0.03642 -0.0096,0.05559 -0.03067,0.0901 -0.118858,0.184039 -0.272223,0.184039 -0.09585,0 -0.184039,-0.05943 -0.184039,-0.191707 0,-0.220463 0.264555,-0.251136 0.465848,-0.245385 z m -1.357283,-0.1572 0.162951,0.452429 h 0.09394 L 31.63739,37.135683 h -0.08818 l -0.467765,1.292105 h 0.09394 l 0.159117,-0.452429 z m -0.481185,-0.07668 0.1572,-0.435174 c 0.02876,-0.08243 0.04984,-0.149532 0.0671,-0.224298 h 0.0058 c 0.01725,0.07285 0.03451,0.138029 0.0671,0.228132 l 0.1572,0.43134 z m -0.469691,-0.189792 h -0.515692 v -0.496522 h 0.546365 v -0.07668 H 30.285843 V 38.42779 H 30.9549 v -0.07668 h -0.577038 v -0.565536 h 0.515692 z m -0.893334,0 h -0.515691 v -0.496522 h 0.546364 v -0.07668 h -0.638384 v 1.292105 h 0.669058 v -0.07668 h -0.577038 v -0.565536 h 0.515691 z m -1.368786,0.793667 0.61538,-1.389876 h -0.09394 l -0.609628,1.389876 z m -1.111911,-1.366871 v 0.785998 c 0,0.394917 0.205127,0.527195 0.431341,0.527195 0.243468,0 0.45818,-0.145698 0.45818,-0.542531 v -0.770662 h -0.09202 v 0.780247 c 0,0.316317 -0.147614,0.454346 -0.362326,0.454346 -0.18979,0 -0.343155,-0.126527 -0.343155,-0.454346 v -0.780247 z m -0.285637,0.573204 h -0.515692 v -0.496522 h 0.546365 v -0.07668 h -0.638384 v 1.292105 h 0.669057 v -0.07668 h -0.577038 v -0.565536 h 0.515692 z m -1.265266,0.249219 c 0.0038,-0.01725 0.0038,-0.03067 0.0038,-0.0556 0,-0.132278 -0.05751,-0.416005 -0.358492,-0.416005 -0.237717,0 -0.414087,0.191707 -0.414087,0.498439 0,0.270306 0.164868,0.462013 0.429424,0.462013 0.161033,0 0.25497,-0.04026 0.289477,-0.05943 l -0.02301,-0.07093 c -0.05176,0.02492 -0.120775,0.05176 -0.25497,0.05176 -0.191707,0 -0.350824,-0.116942 -0.350824,-0.410253 z m -0.674809,-0.07285 c 0.01725,-0.141863 0.105439,-0.322068 0.308649,-0.322068 0.22238,0 0.276058,0.193624 0.274141,0.322068 z m -1.044795,0.542532 h 0.09202 v -0.561702 c 0,-0.03834 0.0019,-0.06326 0.0115,-0.09202 0.04026,-0.113107 0.147615,-0.207044 0.277975,-0.207044 0.187873,0 0.253054,0.149532 0.253054,0.316317 v 0.544448 h 0.09202 v -0.554033 c 0,-0.343156 -0.233882,-0.387249 -0.320151,-0.387249 -0.06901,0 -0.132277,0.01917 -0.185955,0.05368 -0.05368,0.03067 -0.09777,0.08052 -0.12461,0.132278 h -0.0038 v -0.605794 h -0.09202 z m -0.55787,-1.088896 v 0.168702 h -0.155283 v 0.07477 h 0.155283 v 0.580872 c 0,0.09394 0.01534,0.172536 0.05751,0.220463 0.03451,0.04409 0.0901,0.06518 0.1572,0.06518 0.0556,0 0.09777,-0.0096 0.128444,-0.023 l -0.0115,-0.06902 c -0.023,0.0077 -0.05751,0.01342 -0.105439,0.01342 -0.09777,0 -0.134195,-0.07285 -0.134195,-0.18979 V 37.58236 h 0.262639 v -0.07477 h -0.262639 v -0.203209 z m -0.692054,0.619214 c 0.0038,-0.01725 0.0038,-0.03067 0.0038,-0.0556 0,-0.132278 -0.05751,-0.416005 -0.358492,-0.416005 -0.237717,0 -0.414087,0.191707 -0.414087,0.498439 0,0.270306 0.164868,0.462013 0.429423,0.462013 0.161034,0 0.254971,-0.04026 0.289478,-0.05943 l -0.02301,-0.07093 c -0.05176,0.02492 -0.120775,0.05176 -0.25497,0.05176 -0.191707,0 -0.350824,-0.116942 -0.350824,-0.410253 z m -0.674809,-0.07285 c 0.01725,-0.141863 0.105439,-0.322068 0.308648,-0.322068 0.22238,0 0.276058,0.193624 0.274141,0.322068 z m -0.41792,-0.818588 v 0.582789 h -0.0038 c -0.04026,-0.08052 -0.141863,-0.162951 -0.30098,-0.162951 -0.226214,0 -0.416004,0.191707 -0.414087,0.498439 0,0.274141 0.168702,0.463931 0.396833,0.463931 0.17062,0 0.279893,-0.09394 0.327819,-0.195542 h 0.0038 l 0.0077,0.174454 h 0.08243 c -0.0058,-0.06518 -0.0077,-0.145698 -0.0077,-0.214712 v -1.146408 z m 0,0.989208 c 0,0.02876 -0.0019,0.05176 -0.0096,0.07668 -0.03834,0.151449 -0.162951,0.239634 -0.295229,0.239634 -0.218546,0 -0.322068,-0.18979 -0.322068,-0.396834 0,-0.237716 0.126527,-0.41217 0.327819,-0.41217 0.149532,0 0.258805,0.101605 0.289478,0.224297 0.0077,0.02492 0.0096,0.05943 0.0096,0.08435 z m -0.950864,0.371912 v -0.920194 h -0.09202 v 0.920194 z m -0.04601,-1.263349 c -0.04218,0 -0.07477,0.03834 -0.07477,0.08052 0,0.04218 0.02876,0.0786 0.07093,0.0786 0.04793,0 0.07668,-0.03642 0.07668,-0.0786 0,-0.04409 -0.03067,-0.08052 -0.07285,-0.08052 z m -0.832006,1.219256 c 0.06135,0.03834 0.145697,0.06326 0.233882,0.06326 0.187873,0 0.310566,-0.105438 0.310566,-0.262638 0,-0.139946 -0.08819,-0.214712 -0.237717,-0.272224 -0.12461,-0.05176 -0.18979,-0.09394 -0.18979,-0.18979 0,-0.08435 0.06135,-0.159117 0.178288,-0.159117 0.09202,0 0.151448,0.03259 0.184038,0.05559 l 0.03451,-0.07477 c -0.04601,-0.03259 -0.118858,-0.05751 -0.203209,-0.05751 -0.178287,0 -0.283726,0.116942 -0.283726,0.249219 0,0.111191 0.08243,0.193625 0.233882,0.251137 0.132278,0.05368 0.193624,0.107356 0.193624,0.20896 0,0.09585 -0.06901,0.174454 -0.214712,0.174454 -0.08243,0 -0.157199,-0.03259 -0.207043,-0.06326 z m -0.486938,-1.044803 v 0.168702 h -0.155283 v 0.07477 h 0.155283 v 0.580872 c 0,0.09394 0.01534,0.172536 0.05751,0.220463 0.03451,0.04409 0.0901,0.06518 0.1572,0.06518 0.0556,0 0.09777,-0.0096 0.128443,-0.023 l -0.0115,-0.06902 c -0.02301,0.0077 -0.05751,0.01342 -0.105439,0.01342 -0.09777,0 -0.134195,-0.07285 -0.134195,-0.18979 V 37.58236 h 0.262639 v -0.07477 h -0.262639 v -0.203209 z m -0.343151,0.168702 h -0.09202 v 0.573204 c 0,0.03642 -0.0077,0.07285 -0.01725,0.101605 -0.04026,0.09202 -0.138029,0.185956 -0.272224,0.185956 -0.182122,0 -0.243468,-0.143781 -0.243468,-0.343156 v -0.517609 h -0.09202 v 0.534863 c 0,0.346989 0.197458,0.406419 0.314399,0.406419 0.162951,0 0.26839,-0.09969 0.3144,-0.185956 h 0.0038 l 0.0058,0.164868 h 0.08627 c -0.0058,-0.07093 -0.0077,-0.14378 -0.0077,-0.224297 z m -1.370706,-0.02109 c -0.228131,0 -0.435175,0.174454 -0.435175,0.488853 0,0.287561 0.184039,0.473517 0.421755,0.473517 0.205127,0 0.440927,-0.147615 0.440927,-0.49077 0,-0.279893 -0.172537,-0.4716 -0.427507,-0.4716 z m -0.0019,0.07668 c 0.243468,0 0.337404,0.231966 0.337404,0.400668 0,0.235799 -0.151448,0.408336 -0.343155,0.408336 -0.187873,0 -0.335488,-0.172537 -0.335488,-0.402585 0,-0.197458 0.105439,-0.406419 0.341239,-0.406419 z m -2.346499,0.864602 h 0.09202 v -0.567453 c 0,-0.03067 0.0058,-0.06326 0.01342,-0.08818 0.03451,-0.107356 0.132278,-0.207044 0.254971,-0.207044 0.149531,0 0.228131,0.120776 0.228131,0.287561 v 0.575121 h 0.09202 V 37.83733 c 0,-0.03259 0.0077,-0.06326 0.01534,-0.0901 0.03642,-0.09777 0.126527,-0.182122 0.241551,-0.182122 0.159117,0 0.239633,0.122693 0.239633,0.329736 v 0.532946 h 0.09202 v -0.542531 c 0,-0.348907 -0.210878,-0.398751 -0.30098,-0.398751 -0.09777,0 -0.159117,0.02684 -0.218546,0.07668 -0.03451,0.02876 -0.06902,0.06902 -0.09394,0.12461 h -0.0038 c -0.04026,-0.116942 -0.138029,-0.201293 -0.264555,-0.201293 -0.151449,0 -0.239634,0.0786 -0.299063,0.184039 h -0.0038 l -0.0058,-0.162951 h -0.08627 c 0.0058,0.07285 0.0077,0.136112 0.0077,0.220463 z m -0.66139,-0.941282 c -0.228131,0 -0.435175,0.174454 -0.435175,0.488853 0,0.287561 0.184039,0.473517 0.421756,0.473517 0.205126,0 0.440926,-0.147615 0.440926,-0.49077 0,-0.279893 -0.172536,-0.4716 -0.427507,-0.4716 z m -0.0019,0.07668 c 0.243468,0 0.337405,0.231966 0.337405,0.400668 0,0.235799 -0.151449,0.408336 -0.343156,0.408336 -0.187873,0 -0.335487,-0.172537 -0.335487,-0.402585 0,-0.197458 0.105439,-0.406419 0.341238,-0.406419 z m -0.903148,0.864602 h 0.09202 v -0.508024 c 0,-0.03067 0.0019,-0.06135 0.0077,-0.08819 0.02492,-0.147614 0.115024,-0.256887 0.241551,-0.256887 0.01725,0 0.03067,0 0.04409,0.0038 v -0.08818 c -0.0115,-0.0019 -0.02492,-0.0038 -0.03834,-0.0038 -0.124609,0 -0.220463,0.09202 -0.260721,0.207044 h -0.0058 l -0.0038,-0.185956 h -0.08435 c 0.0058,0.0901 0.0077,0.184039 0.0077,0.276058 z m -0.402579,0 V 37.58236 h 0.245385 v -0.07477 h -0.245385 v -0.05176 c 0,-0.17637 0.03451,-0.33357 0.207044,-0.33357 0.0556,0 0.0901,0.0115 0.116941,0.02492 l 0.02876,-0.07093 c -0.02876,-0.01534 -0.0786,-0.03067 -0.138029,-0.03067 -0.07285,0 -0.147614,0.02492 -0.205126,0.08052 -0.07477,0.07477 -0.101605,0.18979 -0.101605,0.331653 v 0.04984 h -0.132278 v 0.07477 h 0.132278 v 0.845428 z m -1.303605,-0.04409 c 0.06135,0.03834 0.145698,0.06326 0.233883,0.06326 0.187873,0 0.310565,-0.105438 0.310565,-0.262638 0,-0.139946 -0.08818,-0.214712 -0.237717,-0.272224 -0.124609,-0.05176 -0.189789,-0.09394 -0.189789,-0.18979 0,-0.08435 0.06135,-0.159117 0.178287,-0.159117 0.09202,0 0.151449,0.03259 0.184039,0.05559 l 0.03451,-0.07477 c -0.04601,-0.03259 -0.118858,-0.05751 -0.203209,-0.05751 -0.178288,0 -0.283727,0.116942 -0.283727,0.249219 0,0.111191 0.08243,0.193625 0.233883,0.251137 0.132278,0.05368 0.193624,0.107356 0.193624,0.20896 0,0.09585 -0.06902,0.174454 -0.214712,0.174454 -0.08243,0 -0.1572,-0.03259 -0.207044,-0.06326 z m -0.329735,-1.317027 v 0.582789 h -0.0038 c -0.04026,-0.08052 -0.141863,-0.162951 -0.30098,-0.162951 -0.226214,0 -0.416004,0.191707 -0.414087,0.498439 0,0.274141 0.168702,0.463931 0.396834,0.463931 0.170619,0 0.279892,-0.09394 0.327819,-0.195542 h 0.0038 l 0.0077,0.174454 h 0.08243 c -0.0058,-0.06518 -0.0077,-0.145698 -0.0077,-0.214712 v -1.146408 z m 0,0.989208 c 0,0.02876 -0.0019,0.05176 -0.0096,0.07668 -0.03834,0.151449 -0.162951,0.239634 -0.295229,0.239634 -0.218546,0 -0.322067,-0.18979 -0.322067,-0.396834 0,-0.237716 0.126526,-0.41217 0.327819,-0.41217 0.149531,0 0.258804,0.101605 0.289477,0.224297 0.0077,0.02492 0.0096,0.05943 0.0096,0.08435 z m -1.188965,0.371912 h 0.09202 v -0.508024 c 0,-0.03067 0.0019,-0.06135 0.0077,-0.08819 0.02492,-0.147614 0.115024,-0.256887 0.241551,-0.256887 0.01725,0 0.03067,0 0.04409,0.0038 v -0.08818 c -0.0115,-0.0019 -0.02492,-0.0038 -0.03834,-0.0038 -0.124609,0 -0.220463,0.09202 -0.260721,0.207044 h -0.0058 l -0.0038,-0.185956 h -0.08435 c 0.0058,0.0901 0.0077,0.184039 0.0077,0.276058 z m -0.295225,-0.578955 c 0,-0.162951 -0.05176,-0.362327 -0.318234,-0.362327 -0.08243,0 -0.1859559,0.02301 -0.270307,0.0786 l 0.028756,0.0671 c 0.067097,-0.04793 0.151449,-0.06902 0.231966,-0.06902 0.218546,-0.0019 0.235799,0.180205 0.235799,0.270307 v 0.02492 c -0.3757456,-0.0038 -0.5617014,0.12461 -0.5617014,0.337404 0,0.122693 0.084351,0.253054 0.2703074,0.253054 0.147614,0 0.249219,-0.08243 0.295228,-0.153366 h 0.0038 l 0.01342,0.132278 h 0.08435 c -0.0115,-0.07093 -0.01342,-0.145698 -0.01342,-0.218546 z m -0.09202,0.283726 c 0,0.01534 -0.0019,0.03642 -0.0096,0.05559 -0.03067,0.0901 -0.118859,0.184039 -0.272224,0.184039 -0.095854,0 -0.1840388,-0.05943 -0.1840388,-0.191707 0,-0.220463 0.2645558,-0.251136 0.4658478,-0.245385 z m -0.7265671,0.182122 c -0.049844,0.023 -0.1207754,0.05368 -0.2300484,0.05368 -0.2127948,0 -0.3642433,-0.1572 -0.3642433,-0.398751 0,-0.214712 0.1265266,-0.404502 0.3738286,-0.404502 0.1016047,0 0.1725363,0.02876 0.2166289,0.05368 l 0.03259,-0.07477 c -0.034507,-0.02492 -0.1284437,-0.05751 -0.2415508,-0.05751 -0.274141,0 -0.4735163,0.199376 -0.4735163,0.49077 0,0.276058 0.1763705,0.469682 0.4409261,0.469682 0.1341949,0 0.2300484,-0.04026 0.2703069,-0.05943 z M 8.296547,37.848833 c 0,-0.162951 -0.051761,-0.362327 -0.3182336,-0.362327 -0.082434,0 -0.1859558,0.02301 -0.2703069,0.0786 l 0.028756,0.0671 c 0.067097,-0.04793 0.1514485,-0.06902 0.2319654,-0.06902 0.218546,-0.0019 0.2357996,0.180205 0.2357996,0.270307 v 0.02492 c -0.3757457,-0.0038 -0.5617015,0.12461 -0.5617015,0.337404 0,0.122693 0.084351,0.253054 0.2703069,0.253054 0.1476144,0 0.2492191,-0.08243 0.2952288,-0.153366 h 0.00383 l 0.01342,0.132278 h 0.084351 C 8.2984641,38.356856 8.296547,38.28209 8.296547,38.209242 Z m -0.092019,0.283726 c 0,0.01534 -0.00192,0.03642 -0.00959,0.05559 -0.030673,0.0901 -0.1188583,0.184039 -0.2722239,0.184039 -0.095853,0 -0.1840388,-0.05943 -0.1840388,-0.191707 0,-0.220463 0.2645557,-0.251136 0.465848,-0.245385 z m -1.2671815,0.251136 c 0.061346,0.03834 0.1456973,0.06326 0.2338825,0.06326 0.1878729,0 0.3105654,-0.105438 0.3105654,-0.262638 0,-0.139946 -0.088185,-0.214712 -0.2377167,-0.272224 -0.1246096,-0.05176 -0.18979,-0.09394 -0.18979,-0.18979 0,-0.08435 0.061346,-0.159117 0.1782876,-0.159117 0.092019,0 0.1514485,0.03259 0.1840387,0.05559 l 0.034507,-0.07477 c -0.04601,-0.03259 -0.1188583,-0.05751 -0.2032094,-0.05751 -0.1782875,0 -0.2837263,0.116942 -0.2837263,0.249219 0,0.111191 0.082434,0.193625 0.2338825,0.251137 0.1322778,0.05368 0.1936241,0.107356 0.1936241,0.20896 0,0.09585 -0.069015,0.174454 -0.2147119,0.174454 -0.082434,0 -0.1571997,-0.03259 -0.2070435,-0.06326 z m -0.237722,0.04409 v -0.920194 h -0.092019 v 0.920194 z m -0.04601,-1.263349 c -0.042175,0 -0.074766,0.03834 -0.074766,0.08052 0,0.04218 0.028756,0.0786 0.070932,0.0786 0.047927,0 0.076683,-0.03642 0.076683,-0.0786 0,-0.04409 -0.030673,-0.08052 -0.072849,-0.08052 z M 6.0096784,38.427788 6.488946,37.135683 H 6.391175 l -0.2511362,0.692062 c -0.067097,0.182122 -0.1265266,0.348907 -0.164868,0.494604 H 5.96942 C 5.9329956,38.178569 5.8793177,38.015618 5.8179714,37.827745 L 5.5898401,37.135683 h -0.095853 l 0.4294237,1.292105 z m -1.119572,0 h 0.092019 v -1.36112 h -0.092019 z m -0.4064179,0 h 0.092019 v -1.36112 h -0.092019 z m -0.4562598,-0.452429 0.162951,0.452429 h 0.093936 L 3.8203852,37.135683 H 3.7322 l -0.4677651,1.292105 h 0.093936 l 0.1591168,-0.452429 z m -0.4811845,-0.07668 0.1571997,-0.435174 c 0.028756,-0.08243 0.049844,-0.149532 0.067098,-0.224298 h 0.00575 c 0.017254,0.07285 0.034507,0.138029 0.067097,0.228132 l 0.1571998,0.43134 z" />
  <path fill="#1d337a"
     d="m 33.552168,32.529673 v 1.098325 h -0.008 c -0.08787,-0.143781 -0.279574,-0.251616 -0.547166,-0.251616 -0.467287,0 -0.874666,0.387409 -0.870672,1.038416 0,0.599087 0.36744,0.994484 0.834727,0.994484 0.279574,0 0.515215,-0.135793 0.631038,-0.351464 h 0.008 l 0.02396,0.307531 h 0.435336 c -0.008,-0.131799 -0.01597,-0.34747 -0.01597,-0.547166 v -2.28851 z m 0,1.992961 c 0,0.05192 -0.004,0.09985 -0.01598,0.143781 -0.04793,0.211677 -0.223659,0.34747 -0.423354,0.34747 -0.311525,0 -0.487257,-0.259604 -0.487257,-0.619056 0,-0.359452 0.175732,-0.639026 0.491251,-0.639026 0.223659,0 0.379421,0.155763 0.423354,0.343476 0.008,0.03994 0.01198,0.09186 0.01198,0.131799 z m -1.713382,0.008 c 0.008,-0.04393 0.01598,-0.115824 0.01598,-0.207684 0,-0.427348 -0.207684,-0.946556 -0.838722,-0.946556 -0.623049,0 -0.95055,0.507226 -0.95055,1.046404 0,0.595093 0.371434,0.982502 1.002471,0.982502 0.279574,0 0.511221,-0.05192 0.678965,-0.123811 l -0.07189,-0.335489 c -0.151769,0.05192 -0.311525,0.08787 -0.539178,0.08787 -0.315519,0 -0.587105,-0.151768 -0.599087,-0.503232 z m -1.302015,-0.343477 c 0.01997,-0.199695 0.147775,-0.475275 0.451312,-0.475275 0.327501,0 0.407379,0.295549 0.403385,0.475275 z m -1.645888,-1.130276 v 0.363446 h -0.275579 v 0.367439 h 0.275579 v 0.914606 c 0,0.25561 0.04793,0.435336 0.155763,0.547165 0.09186,0.09985 0.239635,0.159757 0.423354,0.159757 0.151769,0 0.283568,-0.02396 0.355458,-0.05192 l -0.008,-0.371434 c -0.05592,0.01598 -0.103842,0.01997 -0.191708,0.01997 -0.187714,0 -0.251616,-0.119817 -0.251616,-0.359452 v -0.858691 h 0.467287 v -0.367439 h -0.467287 v -0.499239 z m -2.416311,3.099274 h 0.491251 v -1.006465 h 0.008 c 0.09985,0.155762 0.303537,0.259604 0.547165,0.259604 0.443324,0 0.886648,-0.339483 0.886648,-1.042411 0,-0.607074 -0.371433,-0.990489 -0.818751,-0.990489 -0.29555,0 -0.523203,0.123811 -0.666983,0.343476 h -0.008 l -0.02396,-0.299543 H 26.4586 c 0.008,0.183719 0.01598,0.391403 0.01598,0.647013 z m 0.491251,-1.905095 c 0,-0.03994 0.008,-0.08387 0.01598,-0.123811 0.05192,-0.215671 0.239635,-0.363446 0.443324,-0.363446 0.315519,0 0.483264,0.279574 0.483264,0.62305 0,0.383415 -0.18372,0.643019 -0.495245,0.643019 -0.211678,0 -0.383416,-0.14378 -0.435337,-0.343476 -0.008,-0.04393 -0.01198,-0.08787 -0.01198,-0.135793 z m -0.902618,0.279574 c 0.008,-0.04393 0.01598,-0.115824 0.01598,-0.207684 0,-0.427348 -0.207683,-0.946556 -0.838721,-0.946556 -0.62305,0 -0.95055,0.507226 -0.95055,1.046404 0,0.595093 0.371433,0.982502 1.002471,0.982502 0.279574,0 0.51122,-0.05192 0.678965,-0.123811 l -0.07189,-0.335489 c -0.151768,0.05192 -0.311525,0.08787 -0.539178,0.08787 -0.315518,0 -0.587104,-0.151768 -0.599086,-0.503232 z M 24.76119,34.187145 c 0.01997,-0.199695 0.147775,-0.475275 0.451312,-0.475275 0.3275,0 0.407379,0.295549 0.403385,0.475275 z m -0.742467,0.754849 c -0.09585,0.03994 -0.219665,0.07588 -0.387409,0.07588 -0.335488,0 -0.595093,-0.227653 -0.595093,-0.627044 -0.004,-0.355458 0.219665,-0.631038 0.595093,-0.631038 0.175732,0 0.291555,0.03594 0.371434,0.07588 l 0.08787,-0.371433 c -0.11183,-0.04793 -0.29555,-0.08787 -0.475276,-0.08787 -0.682958,0 -1.082349,0.451311 -1.082349,1.034422 0,0.603081 0.395397,0.994484 1.002471,0.994484 0.243629,0 0.447318,-0.05192 0.55116,-0.09985 z m -1.757316,0 c -0.09585,0.03994 -0.219665,0.07588 -0.38741,0.07588 -0.335488,0 -0.595092,-0.227653 -0.595092,-0.627044 -0.004,-0.355458 0.219665,-0.631038 0.595092,-0.631038 0.175732,0 0.291556,0.03594 0.371434,0.07588 l 0.08787,-0.371433 c -0.111829,-0.04793 -0.295549,-0.08787 -0.475275,-0.08787 -0.682959,0 -1.08235,0.451311 -1.08235,1.034422 0,0.603081 0.395397,0.994484 1.002472,0.994484 0.243628,0 0.447317,-0.05192 0.551159,-0.09985 z m -1.881126,-0.742867 c 0,-0.427348 -0.179726,-0.822745 -0.802776,-0.822745 -0.307531,0 -0.559147,0.08387 -0.702928,0.171738 l 0.09585,0.319513 c 0.131799,-0.08387 0.331494,-0.143781 0.523202,-0.143781 0.343476,0 0.395397,0.211677 0.395397,0.339482 v 0.03195 c -0.718904,-0.004 -1.15424,0.247623 -1.15424,0.73488 0,0.295549 0.219665,0.579117 0.611068,0.579117 0.255611,0 0.4593,-0.107836 0.575124,-0.259604 h 0.01198 l 0.03594,0.215671 h 0.443324 c -0.02396,-0.119817 -0.03195,-0.291556 -0.03195,-0.467288 z m -0.479269,0.483263 c 0,0.03595 0,0.07189 -0.01198,0.107836 -0.04793,0.139787 -0.187714,0.267592 -0.387409,0.267592 -0.155763,0 -0.279574,-0.08787 -0.279574,-0.279574 0,-0.295549 0.331495,-0.36744 0.678965,-0.363446 z m -3.642441,0.587105 c 0.14378,0.07988 0.355458,0.135793 0.591098,0.135793 0.515215,0 0.790795,-0.25561 0.790795,-0.611068 -0.004,-0.287562 -0.163751,-0.467288 -0.519209,-0.591099 -0.247622,-0.09186 -0.339482,-0.147775 -0.339482,-0.271586 0,-0.119817 0.09585,-0.207683 0.271586,-0.207683 0.171738,0 0.331494,0.0639 0.411373,0.111829 l 0.09985,-0.343476 c -0.115823,-0.0639 -0.303537,-0.115823 -0.519208,-0.115823 -0.451312,0 -0.734879,0.263598 -0.734879,0.607074 0,0.231647 0.155762,0.43933 0.535184,0.567135 0.239634,0.08787 0.319512,0.151769 0.319512,0.283568 0,0.127805 -0.09585,0.219665 -0.311525,0.219665 -0.175732,0 -0.387409,-0.07588 -0.495245,-0.143781 z m -0.898625,-2.739822 v 1.098325 h -0.008 c -0.08787,-0.143781 -0.279573,-0.251616 -0.547165,-0.251616 -0.467288,0 -0.874667,0.387409 -0.870673,1.038416 0,0.599087 0.36744,0.994484 0.834728,0.994484 0.279573,0 0.515214,-0.135793 0.631037,-0.351464 h 0.008 l 0.02396,0.307531 h 0.435336 c -0.008,-0.131799 -0.01598,-0.34747 -0.01598,-0.547166 v -2.28851 z m 0,1.992961 c 0,0.05192 -0.004,0.09985 -0.01598,0.143781 -0.04793,0.211677 -0.223659,0.34747 -0.423355,0.34747 -0.311525,0 -0.487257,-0.259604 -0.487257,-0.619056 0,-0.359452 0.175732,-0.639026 0.491251,-0.639026 0.223659,0 0.379421,0.155763 0.423354,0.343476 0.008,0.03994 0.01198,0.09186 0.01198,0.131799 z m -2.687903,0.842715 h 0.491251 V 34.35489 c 0,-0.05192 0.004,-0.103842 0.01198,-0.147775 0.04393,-0.223659 0.207683,-0.371434 0.43933,-0.371434 0.05991,0 0.103842,0.004 0.147775,0.01198 v -0.4593 c -0.03994,-0.008 -0.0679,-0.01198 -0.115824,-0.01198 -0.211677,0 -0.43933,0.139786 -0.535183,0.411372 h -0.01198 l -0.01997,-0.367439 h -0.423354 c 0.01198,0.171738 0.01598,0.363445 0.01598,0.627043 z m -0.519202,-1.166222 c 0,-0.427348 -0.179726,-0.822745 -0.802776,-0.822745 -0.307531,0 -0.559147,0.08387 -0.702928,0.171738 l 0.09585,0.319513 c 0.131799,-0.08387 0.331495,-0.143781 0.523202,-0.143781 0.343477,0 0.395397,0.211677 0.395397,0.339482 v 0.03195 c -0.718903,-0.004 -1.15424,0.247623 -1.15424,0.73488 0,0.295549 0.219665,0.579117 0.611069,0.579117 0.25561,0 0.459299,-0.107836 0.575123,-0.259604 h 0.01198 l 0.03595,0.215671 h 0.443324 c -0.02396,-0.119817 -0.03195,-0.291556 -0.03195,-0.467288 z m -0.479269,0.483263 c 0,0.03595 0,0.07189 -0.01198,0.107836 -0.04793,0.139787 -0.187713,0.267592 -0.387409,0.267592 -0.155762,0 -0.279574,-0.08787 -0.279574,-0.279574 0,-0.295549 0.331495,-0.36744 0.678965,-0.363446 z M 10.2118,34.941994 c -0.09585,0.03994 -0.2196647,0.07588 -0.387409,0.07588 -0.3354884,0 -0.5950926,-0.227653 -0.5950926,-0.627044 -0.00399,-0.355458 0.2196651,-0.631038 0.5950926,-0.631038 0.175732,0 0.291555,0.03594 0.371434,0.07588 l 0.08787,-0.371433 c -0.11183,-0.04793 -0.2955496,-0.08787 -0.4752756,-0.08787 -0.6829586,0 -1.0823496,0.451311 -1.0823496,1.034422 0,0.603081 0.3953971,0.994484 1.0024714,0.994484 0.2436285,0 0.4473178,-0.05192 0.5511598,-0.09985 z m 19.430327,-6.038781 v 0.363446 h -0.27558 v 0.367439 h 0.27558 v 0.914606 c 0,0.25561 0.04793,0.435336 0.155763,0.547165 0.09186,0.09985 0.239634,0.159757 0.423354,0.159757 0.151769,0 0.283568,-0.02396 0.355458,-0.05192 l -0.008,-0.371434 c -0.05591,0.01598 -0.103842,0.01997 -0.191708,0.01997 -0.187713,0 -0.251616,-0.119817 -0.251616,-0.359452 v -0.858691 h 0.467288 v -0.36744 H 30.12539 V 28.76742 Z m -0.611058,2.30848 v -1.945034 h -0.491251 v 1.945034 z m -0.243628,-2.755798 c -0.163751,0 -0.27558,0.115823 -0.27558,0.267592 0,0.143781 0.107836,0.263598 0.271586,0.263598 0.171738,0 0.279574,-0.119817 0.279574,-0.263598 -0.004,-0.151769 -0.107836,-0.267592 -0.27558,-0.267592 z m -2.584056,2.208632 c 0,0.199696 -0.008,0.415367 -0.01598,0.547166 h 0.419361 l 0.02396,-0.291556 h 0.008 c 0.139787,0.239635 0.363446,0.335489 0.615062,0.335489 0.43933,0 0.882654,-0.34747 0.882654,-1.046405 0.004,-0.591098 -0.335488,-0.986495 -0.810763,-0.986495 -0.291556,0 -0.503233,0.123811 -0.62305,0.311525 h -0.008 v -1.158234 h -0.491251 z m 0.491251,-0.571129 c 0,-0.04793 0.008,-0.09186 0.01598,-0.127805 0.05192,-0.215671 0.23564,-0.359452 0.435336,-0.359452 0.3275,0 0.491251,0.279574 0.491251,0.62305 0,0.395397 -0.187714,0.639026 -0.495245,0.639026 -0.211677,0 -0.383416,-0.143781 -0.435336,-0.343477 -0.008,-0.03595 -0.01198,-0.07588 -0.01198,-0.115823 z m -0.902618,0.283568 c 0.008,-0.04393 0.01598,-0.115824 0.01598,-0.207684 0,-0.427348 -0.207683,-0.946556 -0.838721,-0.946556 -0.62305,0 -0.95055,0.507226 -0.95055,1.046404 0,0.595093 0.371433,0.982502 1.002471,0.982502 0.279574,0 0.511221,-0.05192 0.678965,-0.123811 l -0.07189,-0.335489 c -0.151768,0.05192 -0.311525,0.08787 -0.539177,0.08787 -0.315519,0 -0.587105,-0.151768 -0.599087,-0.503232 z m -1.302015,-0.343477 c 0.01997,-0.199695 0.147775,-0.475275 0.451312,-0.475275 0.327501,0 0.407379,0.295549 0.403385,0.475275 z m -3.055337,1.170216 c 0.16375,0.01997 0.379421,0.03595 0.662989,0.03595 0.523202,0 0.950551,-0.123811 1.218143,-0.36744 0.25561,-0.231646 0.41936,-0.587104 0.41936,-1.070367 0,-0.455306 -0.159756,-0.778813 -0.423354,-0.99049 -0.247623,-0.207683 -0.591099,-0.311525 -1.094332,-0.311525 -0.291555,0 -0.563141,0.02396 -0.782806,0.05591 z m 0.491251,-2.292504 c 0.07189,-0.01598 0.179726,-0.02796 0.335488,-0.02796 0.615062,0 0.958539,0.343477 0.954545,0.934575 0,0.682959 -0.379422,1.038417 -1.018447,1.034423 -0.09985,0 -0.20369,0 -0.271586,-0.01198 z m -3.56656,0.355458 0.71491,1.785277 c 0.01997,0.04793 0.02396,0.07588 0.02396,0.09585 0,0.02396 -0.008,0.05192 -0.02796,0.08787 -0.0679,0.131799 -0.175732,0.247623 -0.271586,0.307531 -0.09985,0.07189 -0.199695,0.115824 -0.283567,0.135793 l 0.111829,0.411373 c 0.119817,-0.01598 0.319513,-0.07988 0.515215,-0.247622 0.227652,-0.199696 0.407378,-0.523203 0.67497,-1.250094 l 0.487257,-1.325978 h -0.523202 l -0.303537,1.038416 c -0.03994,0.123811 -0.07588,0.271586 -0.103842,0.379422 h -0.01198 c -0.02796,-0.107836 -0.07189,-0.255611 -0.11183,-0.375428 l -0.34747,-1.04241 z m -0.794781,1.945034 h 0.491251 v -2.835676 h -0.491251 z m -2.284516,0 h 0.491251 v -1.146252 c 0,-0.05591 0.008,-0.115824 0.02396,-0.155763 0.05192,-0.147775 0.187714,-0.287561 0.383415,-0.287561 0.267592,0 0.371434,0.211677 0.371434,0.491251 v 1.098325 h 0.491251 v -1.15424 c 0,-0.615062 -0.351464,-0.834727 -0.690947,-0.834727 -0.323506,0 -0.535184,0.183719 -0.62305,0.335488 h -0.01198 l -0.02396,-0.291555 h -0.427348 c 0.008,0.167744 0.01598,0.355458 0.01598,0.579117 z M 13.618604,28.47187 c -0.758843,0 -1.282046,0.583111 -1.282046,1.413845 0,0.7868 0.47927,1.369911 1.242106,1.369911 0.738874,0 1.286039,-0.515215 1.286039,-1.417838 0,-0.770825 -0.463293,-1.365918 -1.246099,-1.365918 z m -0.01598,0.395398 c 0.491251,0 0.742867,0.479269 0.742867,0.986495 0,0.563142 -0.267592,1.006466 -0.742867,1.006466 -0.471281,0 -0.746861,-0.435336 -0.746861,-0.986496 0,-0.555154 0.259604,-1.006465 0.746861,-1.006465 z" />
</svg>
