<?xml version="1.0" encoding="UTF-8" standalone="no"?>
<svg width="160" height="146" viewBox="0 0 160 146" xmlns="http://www.w3.org/2000/svg">
<path d="m 54.51823,99.820742 v -6.64666 a 3.9326038,3.9326038 0 0 0 -4.154159,-4.198469 4.0987701,4.0987701 0 0 0 -3.722127,1.883216 3.8882927,3.8882927 0 0 0 -3.500571,-1.883216 3.5005712,3.5005712 0 0 0 -3.101772,1.573045 v -1.307181 h -2.304173 v 10.579265 h 2.326329 v -5.893373 a 2.4703398,2.4703398 0 0 1 2.592194,-2.813746 c 1.528731,0 2.304174,0.996993 2.304174,2.791597 v 5.882286 h 2.326329 v -5.860137 a 2.4924953,2.4924953 0 0 1 2.592195,-2.813746 c 1.573042,0 2.326329,0.996993 2.326329,2.791597 v 5.882286 z m 12.960975,-5.284093 v -5.284093 h -2.326328 v 1.285023 a 4.010148,4.010148 0 0 0 -3.323328,-1.550888 5.5388795,5.5388795 0 0 0 0,11.077759 4.010148,4.010148 0 0 0 3.323328,-1.550889 v 1.285023 h 2.304172 z m -8.563106,0 a 3.2014717,3.2014717 0 1 1 3.212549,3.389789 3.1682385,3.1682385 0 0 1 -3.234705,-3.389789 z M 116.70876,88.99777 a 5.9598333,5.9598333 0 0 1 2.21555,0.420958 5.5388785,5.5388785 0 0 1 1.8389,1.185315 5.3616344,5.3616344 0 0 1 1.19641,1.761367 5.8712112,5.8712112 0 0 1 0,4.431098 5.3505566,5.3505566 0 0 1 -1.19641,1.761368 5.5388785,5.5388785 0 0 1 -1.80567,1.174244 6.2700105,6.2700105 0 0 1 -4.54188,0 5.472412,5.472412 0 0 1 -1.79459,-1.174244 5.4059454,5.4059454 0 0 1 -1.18532,-1.761368 5.882289,5.882289 0 0 1 0,-4.431098 5.4059454,5.4059454 0 0 1 1.18532,-1.761367 5.472412,5.472412 0 0 1 1.79459,-1.174244 5.9598333,5.9598333 0 0 1 2.27094,-0.454186 z m 0,2.215553 a 3.4341047,3.4341047 0 0 0 -1.31825,0.243707 3.1128497,3.1128497 0 0 0 -1.05239,0.697901 3.2457828,3.2457828 0 0 0 -0.6979,1.107773 3.8439817,3.8439817 0 0 0 0,2.74729 3.2347051,3.2347051 0 0 0 0.6979,1.107772 3.101772,3.101772 0 0 0 1.05239,0.697902 3.6002711,3.6002711 0 0 0 2.62542,0 3.1682385,3.1682385 0 0 0 1.10778,-0.697902 3.2014717,3.2014717 0 0 0 0.6979,-1.107772 3.8439817,3.8439817 0 0 0 0,-2.74729 3.2125496,3.2125496 0 0 0 -0.6979,-1.107773 3.1682385,3.1682385 0 0 0 -1.10778,-0.697901 3.4341047,3.4341047 0 0 0 -1.32933,-0.310179 z m -36.711692,3.323326 c 0,-3.323326 -2.060459,-5.538879 -5.018222,-5.538879 a 5.5394228,5.5394228 0 0 0 0.155089,11.07776 6.4250991,6.4250991 0 0 0 4.331405,-1.484427 L 78.357559,96.88513 a 5.0403794,5.0403794 0 0 1 -3.079613,1.107781 2.9356056,2.9356056 0 0 1 -3.168238,-2.592197 h 7.854133 c 0.03326,-0.265864 0.03326,-0.553886 0.03326,-0.864065 z m -7.876282,-0.93053 a 2.7251282,2.7251282 0 0 1 2.81375,-2.570039 2.6254284,2.6254284 0 0 1 2.680817,2.570039 z M 89.69011,91.944452 A 6.8128206,6.8128206 0 0 0 86.366785,91.03608 c -1.262866,0 -2.016153,0.465265 -2.016153,1.240709 0,0.775436 0.797593,0.908372 1.794595,1.041308 l 1.107772,0.155086 c 2.304175,0.332337 3.699978,1.307173 3.699978,3.16824 0,1.861059 -1.772446,3.456257 -4.818829,3.456257 a 7.6325746,7.6325746 0 0 1 -4.575113,-1.37364 l 1.107773,-1.794595 a 5.6385784,5.6385784 0 0 0 3.522725,1.107772 c 1.573046,0 2.414954,-0.465265 2.414954,-1.285015 0,-0.598201 -0.598201,-0.930538 -1.861059,-1.107781 l -1.107781,-0.155085 c -2.370638,-0.332337 -3.655662,-1.395795 -3.655662,-3.123926 0,-2.104774 1.728131,-3.389797 4.431106,-3.389797 a 7.9095185,7.9095185 0 0 1 4.309249,1.10778 z m 11.07776,-0.598201 h -3.755365 v 4.796671 c 0,1.107781 0.376643,1.772446 1.528731,1.772446 a 4.2538587,4.2538587 0 0 0 2.038314,-0.598201 l 0.66466,1.971838 a 5.4059454,5.4059454 0 0 1 -2.880217,0.819755 c -2.725133,0 -3.67782,-1.462263 -3.67782,-3.921523 v -4.818828 h -2.149081 v -2.104775 h 2.149081 v -3.212546 h 2.326332 v 3.212546 h 3.755365 z m 7.9649,-2.370638 a 4.9074463,4.9074463 0 0 1 1.63951,0.288021 l -0.70897,2.215554 a 3.7442819,3.7442819 0 0 0 -1.44011,-0.265865 c -1.50658,0 -2.21555,0.974845 -2.21555,2.725125 v 5.9266 h -2.30418 V 89.285792 h 2.28202 v 1.285015 a 3.1239275,3.1239275 0 0 1 2.7916,-1.55088 z m 15.92981,9.294241 a 1.1077757,1.1077757 0 0 1 0.42096,0.07753 1.1077757,1.1077757 0 0 1 0.34341,0.221557 1.1077757,1.1077757 0 0 1 0.23264,0.332329 1.0302314,1.0302314 0 0 1 0,0.819759 1.1077757,1.1077757 0 0 1 -0.23264,0.332321 1.1077757,1.1077757 0 0 1 -0.34341,0.22156 1.0413091,1.0413091 0 0 1 -0.42096,0.0886 1.1077757,1.1077757 0 0 1 -0.99699,-0.642501 1.0413091,1.0413091 0 0 1 0,-0.819759 1.1077757,1.1077757 0 0 1 0.23263,-0.332329 1.1077757,1.1077757 0 0 1 0.34341,-0.221557 1.1077757,1.1077757 0 0 1 0.36557,-0.06644 z m 0,1.872136 a 0.78652075,0.78652075 0 0 0 0.32126,-0.0664 0.83083178,0.83083178 0 0 0 0.25479,-0.17724 0.81975402,0.81975402 0 0 0 -0.25479,-1.329331 0.79759851,0.79759851 0 0 0 -0.32126,-0.06644 0.83083178,0.83083178 0 0 0 -0.32125,0.06644 0.80867626,0.80867626 0 0 0 -0.26586,0.177243 0.81975402,0.81975402 0 0 0 0,1.107773 0.81975402,0.81975402 0 0 0 0.58711,0.243715 z m 0.0664,-1.31825 a 0.44311028,0.44311028 0 0 1 0.28802,0.08862 0.27694393,0.27694393 0 0 1 0.0997,0.232637 0.26586617,0.26586617 0 0 1 -0.0775,0.1994 0.3877215,0.3877215 0 0 1 -0.23263,0.0997 l 0.32126,0.365565 h -0.2548 l -0.2991,-0.365565 h -0.0997 v 0.365565 h -0.21047 v -0.974844 z m -0.24371,0.188322 v 0.265864 h 0.24371 a 0.2326329,0.2326329 0 0 0 0.13293,0 0.11077757,0.11077757 0 0 0 0,-0.0997 0.11077757,0.11077757 0 0 0 0,-0.0997 0.2326329,0.2326329 0 0 0 -0.13293,0 z"
fill="#000000" />
<rect x="62.549606" y="8.54002" width="34.894936" height="62.711185"
fill="#7673c0" />
<path d="m 64.765155,39.890073 a 39.813459,39.813459 0 0 1 15.231913,-31.3500524 39.879926,39.879926 0 1 0 0,62.7111824 39.813459,39.813459 0 0 1 -15.231913,-31.36113 z"
fill="#eb001b" />
<path d="m 140.71425,64.604549 v -1.28502 h 0.52066 v -0.265867 h -1.31825 v 0.265867 h 0.52065 v 1.28502 z m 2.55897,0 v -1.550887 h -0.3988 l -0.46527,1.107776 -0.46527,-1.107776 h -0.39879 v 1.550887 h 0.28802 v -1.163165 l 0.43203,1.008076 h 0.2991 l 0.43203,-1.008076 v 1.174243 z"
fill="#00a1df" />
<path d="m 144.525,39.890073 a 39.879926,39.879926 0 0 1 -64.527932,31.350052 39.879926,39.879926 0 0 0 0,-62.7111822 A 39.879926,39.879926 0 0 1 144.525,39.878995 Z"
fill="#00a1df" />
</svg>
