<?xml version="1.0" encoding="UTF-8" standalone="no"?>
<svg width="160" height="146" viewBox="0 0 160 146" xmlns="http://www.w3.org/2000/svg">
<path d="m 52.552293,122.03009 a 6.4145086,6.4145086 0 0 1 2.818832,0.5771 5.9816958,5.9816958 0 0 1 2.019793,1.55368 v -8.87821 h 2.363825 v 20.73063 h -2.374922 v -1.83113 a 6.0815757,6.0815757 0 0 1 -1.975402,1.55368 6.4145086,6.4145086 0 0 1 -2.818832,0.57709 6.8251259,6.8251259 0 0 1 -2.696758,-0.5327 6.5809752,6.5809752 0 0 1 -2.219553,-1.4871 6.9139081,6.9139081 0 0 1 -1.453808,-2.21955 8.0458805,8.0458805 0 0 1 0,-5.72645 6.9250059,6.9250059 0 0 1 1.453808,-2.21955 6.6586595,6.6586595 0 0 1 2.219553,-1.48709 6.8251259,6.8251259 0 0 1 2.663464,-0.6104 z m 0.277444,2.21957 a 4.7942348,4.7942348 0 0 0 -1.942109,0.37732 4.4391063,4.4391063 0 0 0 -1.498199,1.05428 4.6610616,4.6610616 0 0 0 -0.954407,1.5648 5.4601008,5.4601008 0 0 0 -0.332933,1.91991 5.3713186,5.3713186 0 0 0 0.344031,1.91991 4.7720393,4.7720393 0 0 0 0.954407,1.56479 4.4945951,4.4945951 0 0 0 1.498199,1.10977 4.6610616,4.6610616 0 0 0 1.931011,0.38842 4.7387459,4.7387459 0 0 0 1.908816,-0.37732 4.4391063,4.4391063 0 0 0 1.487101,-1.0432 4.7609414,4.7609414 0 0 0 0.965505,-1.56477 5.404612,5.404612 0 0 0 0.344031,-1.95321 5.3491231,5.3491231 0 0 0 -0.344031,-1.94211 4.7942348,4.7942348 0 0 0 -0.965505,-1.55369 4.4391063,4.4391063 0 0 0 -1.487101,-1.0432 4.7387459,4.7387459 0 0 0 -1.919913,-0.4217 z m 17.456783,-2.21957 a 6.347922,6.347922 0 0 1 2.585779,0.52161 5.9373047,5.9373047 0 0 1 2.030891,1.4538 6.8251259,6.8251259 0 0 1 1.331733,2.21956 8.4675947,8.4675947 0 0 1 0.499403,2.87432 c 0,0.15537 0,0.31074 0,0.45501 v 0.42171 H 65.902905 a 5.449003,5.449003 0 0 0 0.543791,1.86443 4.3725197,4.3725197 0 0 0 1.032091,1.33173 4.0728801,4.0728801 0 0 0 1.409417,0.78794 5.3380253,5.3380253 0 0 0 1.67576,0.25526 6.0149891,6.0149891 0 0 0 2.275047,-0.43282 6.9472014,6.9472014 0 0 0 1.942109,-1.19856 l 1.254045,1.62028 a 7.7684361,7.7684361 0 0 1 -1.309535,0.9988 7.1025701,7.1025701 0 0 1 -1.387222,0.64366 7.7684361,7.7684361 0 0 1 -1.442712,0.34403 10.953495,10.953495 0 0 1 -1.487098,0.0999 7.4687964,7.4687964 0 0 1 -2.807734,-0.5105 6.3257265,6.3257265 0 0 1 -2.219553,-1.4538 6.6586595,6.6586595 0 0 1 -1.431612,-2.21955 8.4897909,8.4897909 0 0 1 0,-5.80414 6.6586595,6.6586595 0 0 1 1.420514,-2.21956 6.4810951,6.4810951 0 0 1 2.241748,-1.53148 6.9361036,6.9361036 0 0 1 2.663461,-0.52161 z m 0,2.08639 a 4.3725197,4.3725197 0 0 0 -1.642466,0.29964 3.884218,3.884218 0 0 0 -1.276244,0.82124 4.4391063,4.4391063 0 0 0 -0.898918,1.25405 5.4711985,5.4711985 0 0 0 -0.488303,1.60918 h 8.29003 a 5.6154694,5.6154694 0 0 0 -0.455005,-1.64248 4.2504443,4.2504443 0 0 0 -0.86563,-1.25405 3.6955561,3.6955561 0 0 0 -1.220751,-0.79904 4.0839778,4.0839778 0 0 0 -1.498203,-0.28854 z m 17.301416,-2.08639 a 6.7696371,6.7696371 0 0 1 2.685659,0.5327 6.6586595,6.6586595 0 0 1 2.219547,1.48711 7.0248857,7.0248857 0 0 1 1.453814,2.21955 7.9349026,7.9349026 0 0 1 0,5.72644 7.013788,7.013788 0 0 1 -1.453814,2.21957 6.6586595,6.6586595 0 0 1 -2.219547,1.48708 6.7696371,6.7696371 0 0 1 -2.685659,0.5327 6.4588997,6.4588997 0 0 1 -2.829921,-0.57708 5.9484024,5.9484024 0 0 1 -2.008699,-1.54259 v 1.89772 h -2.297233 v -20.76392 h 2.352718 v 8.87821 a 5.9484024,5.9484024 0 0 1 2.008691,-1.54259 6.4588997,6.4588997 0 0 1 2.774444,-0.5549 z m -0.277443,2.21957 a 4.7387459,4.7387459 0 0 0 -1.908811,0.37732 4.4391063,4.4391063 0 0 0 -1.487102,1.04318 4.8053326,4.8053326 0 0 0 -0.965504,1.5537 5.3491231,5.3491231 0 0 0 -0.344035,1.94211 5.404612,5.404612 0 0 0 0.344035,1.9532 4.7720393,4.7720393 0 0 0 0.965504,1.56479 4.4391063,4.4391063 0 0 0 1.487102,1.04318 4.7387459,4.7387459 0 0 0 1.908811,0.37733 4.6499639,4.6499639 0 0 0 1.931017,-0.38842 4.5167907,4.5167907 0 0 0 1.48709,-1.10978 4.6832571,4.6832571 0 0 0 0.954414,-1.56479 5.4822963,5.4822963 0 0 0 0.332937,-1.91991 5.3713186,5.3713186 0 0 0 -0.332937,-1.91991 4.7720393,4.7720393 0 0 0 -0.965512,-1.56478 4.4391063,4.4391063 0 0 0 -1.48709,-1.05429 4.694355,4.694355 0 0 0 -1.875524,-0.33293 z m 12.007778,-8.44541 a 1.6757626,1.6757626 0 0 1 1.686859,1.68687 1.609176,1.609176 0 0 1 -1.032086,1.52039 1.7534469,1.7534469 0 0 1 -0.654773,0.12208 1.6979582,1.6979582 0 0 1 -0.643668,-0.12208 1.5758827,1.5758827 0 0 1 -0.521594,-0.34403 1.6868605,1.6868605 0 0 1 -0.355133,-0.5216 1.6313716,1.6313716 0 0 1 -0.133171,-0.64367 1.6757626,1.6757626 0 0 1 0.133171,-0.66587 1.7645448,1.7645448 0 0 1 0.355133,-0.53269 1.6202739,1.6202739 0 0 1 1.176359,-0.4883 z m 1.242949,20.20904 h -2.352727 v -13.69465 h 2.352727 z m 14.06087,-11.55278 h -5.75973 v 6.65866 a 4.0395867,4.0395867 0 0 0 0.19975,1.33174 2.4858996,2.4858996 0 0 0 0.54379,0.92111 2.1418688,2.1418688 0 0 0 0.82124,0.5327 2.9409079,2.9409079 0 0 0 1.03209,0.17756 4.3392265,4.3392265 0 0 0 1.48711,-0.25525 5.8374248,5.8374248 0 0 0 1.30953,-0.66587 l 1.10977,1.77564 a 7.7684361,7.7684361 0 0 1 -1.82003,0.96551 6.4034108,6.4034108 0 0 1 -2.29724,0.38842 5.9595002,5.9595002 0 0 1 -1.9865,-0.31074 3.7732404,3.7732404 0 0 1 -1.49819,-0.94331 4.1838576,4.1838576 0 0 1 -0.93222,-1.59808 7.0914723,7.0914723 0 0 1 -0.32183,-2.21955 v -6.72524 h -2.92981 v -2.15296 h 2.87432 v -4.29484 h 2.36382 v 4.29484 h 5.75974 z"
fill="#000000" />
<path d="m 38.757771,100.00104 v -6.658662 a 3.8731202,3.8731202 0 0 0 -4.083978,-4.194956 4.117271,4.117271 0 0 0 -3.72885,1.886625 3.9064135,3.9064135 0 0 0 -3.506893,-1.886625 3.6289694,3.6289694 0 0 0 -3.196158,1.553686 v -1.298441 h -2.18626 v 10.620563 h 2.152967 v -6.103766 a 2.5524862,2.5524862 0 0 1 2.685659,-2.818836 c 1.531492,0 2.397119,0.998801 2.397119,2.796643 v 6.114859 h 2.152966 v -6.092666 a 2.5635839,2.5635839 0 0 1 2.685659,-2.818836 c 1.575882,0 2.419313,0.998801 2.419313,2.796643 v 6.114859 z M 73.338408,89.402667 h -3.86202 v -3.218349 h -2.164067 v 3.218349 h -2.219552 v 1.931012 h 2.219552 v 5.027287 c 0,2.463712 0.865626,3.928604 3.595674,3.928604 a 5.4268075,5.4268075 0 0 0 2.885424,-0.821224 l -0.665866,-1.886625 a 4.2615422,4.2615422 0 0 1 -2.04199,0.599281 c -1.109779,0 -1.620273,-0.710258 -1.620273,-1.77564 v -5.093877 h 3.86202 z m 19.709619,-0.266342 a 3.3293297,3.3293297 0 0 0 -2.885411,1.553686 v -1.287344 h -2.108568 v 10.620563 h 2.130766 v -5.992789 c 0,-1.753446 0.843435,-2.885417 2.352724,-2.885417 a 3.7621427,3.7621427 0 0 1 1.442717,0.266341 l 0.710249,-2.008698 A 4.9385058,4.9385058 0 0 0 93.048027,89.114123 Z M 63.250539,90.246103 A 7.9460006,7.9460006 0 0 0 58.92241,89.136325 c -2.685659,0 -4.328128,1.265142 -4.328128,3.329326 0,1.73126 1.198559,2.774448 3.57348,3.107379 l 1.109777,0.155365 c 1.265146,0.177566 1.953207,0.621474 1.953207,1.220755 0,0.821234 -0.932212,1.353926 -2.508095,1.353926 a 5.5488828,5.5488828 0 0 1 -3.529089,-1.10977 l -1.109778,1.664662 a 7.9238047,7.9238047 0 0 0 4.594475,1.376122 c 3.062984,0 4.760942,-1.420509 4.760942,-3.440305 0,-2.019795 -1.298438,-2.785545 -3.595676,-3.118476 l -1.109776,-0.155365 c -0.9988,-0.133171 -1.88662,-0.443916 -1.88662,-1.109778 0,-0.66587 0.84343,-1.309538 2.108575,-1.309538 a 6.8473215,6.8473215 0 0 1 3.329329,0.910018 z m 32.183514,4.439103 a 5.2936342,5.2936342 0 0 0 5.548877,5.548884 5.5488828,5.5488828 0 0 0 3.81764,-1.265145 l -1.10978,-1.664662 a 4.6721593,4.6721593 0 0 1 -2.77443,0.954405 3.6178715,3.6178715 0 0 1 0,-7.202456 4.6721593,4.6721593 0 0 1 2.77443,0.954414 l 1.10978,-1.664671 a 5.5488828,5.5488828 0 0 0 -3.81764,-1.265135 5.2936342,5.2936342 0 0 0 -5.548877,5.548874 z M 80.496461,89.136325 c -3.107367,0 -5.249239,2.219548 -5.249239,5.548881 a 5.2270476,5.2270476 0 0 0 5.404612,5.548884 6.4588997,6.4588997 0 0 0 4.350328,-1.487099 L 83.892383,97.171104 A 5.0605812,5.0605812 0 0 1 80.8072,98.280882 3.1184722,3.1184722 0 0 1 77.59995,95.561933 h 7.9349 c 0,-0.288551 0,-0.577086 0,-0.887831 0,-3.329326 -2.01979,-5.548874 -5.005093,-5.548874 z m 0,1.9754 a 2.7078549,2.7078549 0 0 1 2.796641,2.685666 H 77.59995 a 2.8410281,2.8410281 0 0 1 2.929807,-2.685666 z m -28.754305,3.584578 v -5.293636 h -2.130771 v 1.287344 a 4.2060533,4.2060533 0 0 0 -3.440308,-1.553686 5.5766273,5.5766273 0 0 0 0,11.153245 4.2060533,4.2060533 0 0 0 3.440308,-1.553683 v 1.287343 h 2.130771 z m -8.600768,0 a 3.3293297,3.3293297 0 0 1 3.32933,-3.595675 3.6178715,3.6178715 0 0 1 0,7.202448 3.3293297,3.3293297 0 0 1 -3.32933,-3.595676 z m 82.001382,-5.548881 a 3.3293297,3.3293297 0 0 0 -2.88541,1.553686 v -1.298441 h -2.10859 v 10.620563 h 2.13079 v -5.992789 c 0,-1.753446 0.84342,-2.885417 2.35272,-2.885417 a 3.7621427,3.7621427 0 0 1 1.44271,0.266341 l 0.71025,-1.997602 a 4.9385058,4.9385058 0 0 0 -1.64247,-0.288535 z m 17.11276,9.344325 a 1.1097765,1.1097765 0 0 1 0.42171,0.07766 1.1097765,1.1097765 0 0 1 0.34404,0.22197 1.1097765,1.1097765 0 0 1 0.23305,0.332923 1.0320922,1.0320922 0 0 1 0,0.821243 1.1097765,1.1097765 0 0 1 -0.23305,0.332927 1.1097765,1.1097765 0 0 1 -0.34404,0.22197 1.04319,1.04319 0 0 1 -0.42171,0.0888 1.1097765,1.1097765 0 0 1 -0.9988,-0.643657 1.04319,1.04319 0 0 1 0,-0.821243 1.1097765,1.1097765 0 0 1 0.23306,-0.332923 1.1097765,1.1097765 0 0 1 0.34402,-0.22197 1.1097765,1.1097765 0 0 1 0.42172,-0.110969 z m 0,1.875523 a 0.7879414,0.7879414 0 0 0 0.32184,-0.0666 0.84343024,0.84343024 0 0 0 0.25524,-0.17755 0.82123468,0.82123468 0 0 0 0,-1.109775 0.82123468,0.82123468 0 0 0 -0.25524,-0.177566 0.7879414,0.7879414 0 0 0 -0.32184,-0.06661 0.82123468,0.82123468 0 0 0 -0.32183,0.06661 0.8101369,0.8101369 0 0 0 -0.26635,0.177566 0.82123468,0.82123468 0 0 0 0,1.109775 0.83233246,0.83233246 0 0 0 0.26635,0.17755 0.82123468,0.82123468 0 0 0 0.32183,0.0444 z m 0.0665,-1.320638 a 0.44391063,0.44391063 0 0 1 0.28854,0.08877 0.27744415,0.27744415 0 0 1 0.0999,0.233059 0.26634637,0.26634637 0 0 1 -0.0777,0.199752 0.3884218,0.3884218 0 0 1 -0.23305,0.09989 l 0.32184,0.366227 h -0.25526 l -0.29964,-0.366227 h -0.0999 v 0.366227 H 141.856 v -0.976604 z m -0.24415,0.188655 v 0.266358 h 0.24415 a 0.23305309,0.23305309 0 0 0 0.13318,0 0.11097765,0.11097765 0 0 0 0,-0.09989 0.11097765,0.11097765 0 0 0 0,-0.09988 0.24415084,0.24415084 0 0 0 -0.13318,0 z m -25.11424,-4.51679 v -5.31583 h -2.13077 v 1.287344 a 4.2060533,4.2060533 0 0 0 -3.44031,-1.553686 5.5766273,5.5766273 0 0 0 0,11.153245 4.2060533,4.2060533 0 0 0 3.44031,-1.553683 v 1.287343 h 2.13077 z m -8.60077,0 a 3.3293297,3.3293297 0 0 1 3.32933,-3.595675 3.6178715,3.6178715 0 0 1 0,7.202447 3.3293297,3.3293297 0 0 1 -3.32933,-3.595675 z m 30.04166,0 v -9.599561 h -2.13078 v 5.548873 a 4.2060533,4.2060533 0 0 0 -3.44031,-1.553686 5.5766285,5.5766285 0 0 0 0,11.153257 4.2060533,4.2060533 0 0 0 3.44031,-1.553687 v 1.287347 h 2.13078 z m -8.60078,0 a 3.3293297,3.3293297 0 0 1 3.32933,-3.595675 3.6178715,3.6178715 0 0 1 -0.0443,7.15806 3.3293297,3.3293297 0 0 1 -3.32934,-3.584579 z"
fill="#000000"  />
<rect x="62.518093"  y="8.5443459"  width="34.957962"  height="62.824448"
fill="#ff5f00" />
<path d="m 64.73764,39.962121 a 39.88537,39.88537 0 0 1 15.259429,-31.4066777 39.951957,39.951957 0 1 0 0,62.8244537 A 39.88537,39.88537 0 0 1 64.73764,39.962121 Z"
fill="#eb001b" />
<path d="m 140.85721,64.721236 v -1.28734 h 0.5216 v -0.266347 h -1.32064 v 0.266347 h 0.5216 v 1.28734 z m 2.56359,0 v -1.553687 h -0.39952 l -0.46611,1.109776 -0.46611,-1.109776 h -0.39952 v 1.553687 h 0.27744 v -1.176363 l 0.43282,1.009897 h 0.29964 l 0.43281,-1.009897 v 1.176363 z"
fill="#f79e1b" />
<path d="m 144.64154,39.962121 a 39.951957,39.951957 0 0 1 -64.644471,31.406678 39.951957,39.951957 0 0 0 0,-62.8244534 39.951957,39.951957 0 0 1 64.644471,31.4066774 z"
fill="#f79e1b" />
</svg>
