<?xml version="1.0" encoding="UTF-8" standalone="no"?>
<svg width="160" height="146" viewBox="0 0 150.51852 150.1019" xmlns="http://www.w3.org/2000/svg">
<path d="M -2.3875289,85.880981 H 152.8801 V 100.32388 H -2.3875289 Z"
fill="#F7B600" />
<path d="M -2.3875289,14.442898 H 152.8801 V 0 H -2.3875289 Z"
fill="#1A1F71" />
<path d="m 73.907468,30.355128 -8.184417,39.697106 h -9.898172 l 8.184416,-39.697106 z m 41.644872,25.633132 5.21152,-14.907944 2.99715,14.907944 z m 11.05005,14.063974 h 9.15239 l -7.99669,-39.697106 h -8.44365 c -1.90276,0 -3.5067,1.144728 -4.21672,2.909514 l -14.85301,36.787592 h 10.39622 l 2.06365,-5.927668 h 12.69741 z m -25.84176,-12.96032 c 0.0434,-10.476104 -13.959096,-11.056415 -13.865877,-15.73734 0.0308,-1.422958 1.337043,-2.937335 4.196286,-3.325537 1.41749,-0.189473 5.328995,-0.34184 9.762811,1.776711 l 1.73419,-8.421161 C 100.20641,30.490269 97.14283,29.6304 93.329648,29.6304 c -9.785793,0 -16.670204,5.392404 -16.725114,13.120636 -0.06259,5.715682 4.9178,8.902104 8.662019,10.806005 3.860423,1.944977 5.154045,3.193048 5.136169,4.931335 -0.02818,2.663078 -3.08017,3.842256 -5.920257,3.887301 -4.980378,0.08082 -7.866438,-1.396462 -10.16635,-2.509388 l -1.796765,8.703366 c 2.31651,1.099681 6.58431,2.057594 11.004073,2.105291 10.403879,0 17.206557,-5.328808 17.237207,-13.583032 M 59.763203,30.355128 43.72512,70.052234 H 33.262503 L 25.367972,38.370864 C 24.890367,36.42324 24.472781,35.706461 23.01698,34.883688 20.637893,33.541549 16.707228,32.286855 13.252891,31.50648 l 0.233694,-1.151352 h 16.843882 c 2.145392,0 4.076245,1.481255 4.566622,4.044966 l 4.169467,22.974028 10.297881,-27.018994 z"
fill="#1A1F71" />
<path d="m 140.38756,139.20999 v 2.18875 h -0.0138 c -0.14574,-0.3024 -0.51353,-0.61198 -1.08952,-0.61198 -0.81887,0 -1.50589,0.71999 -1.49895,1.87196 0,1.02959 0.61069,1.74238 1.4365,1.74238 0.61762,0 1.01317,-0.35281 1.18667,-0.73439 h 0.0138 l 0.0278,0.65519 h 0.29839 c -0.021,-0.24479 -0.0278,-0.54719 -0.0278,-0.80639 v -4.30552 z m 0,3.71514 c 0,0.108 -0.007,0.19439 -0.0347,0.28798 -0.13878,0.5688 -0.58986,0.89998 -1.06869,0.89998 -0.79112,0 -1.16584,-0.71278 -1.16584,-1.49037 0,-0.89279 0.45801,-1.54798 1.18666,-1.54798 0.54129,0 0.93684,0.3816 1.04787,0.84239 0.0278,0.0936 0.0347,0.22319 0.0347,0.31679 z m -3.18527,-0.3672 c 0.0138,-0.0648 0.0138,-0.11519 0.0138,-0.20882 0,-0.49679 -0.20819,-1.56237 -1.29772,-1.56237 -0.86051,0 -1.49895,0.71999 -1.49895,1.87197 0,1.01518 0.5968,1.73517 1.55447,1.73517 0.58292,0 0.92297,-0.1512 1.04788,-0.22321 l -0.0832,-0.26638 c -0.18738,0.0936 -0.43721,0.19439 -0.92298,0.19439 -0.69396,0 -1.26994,-0.4392 -1.26994,-1.54077 z m -2.44273,-0.2736 c 0.0624,-0.53278 0.38167,-1.20958 1.11727,-1.20958 0.80498,0 0.99929,0.7272 0.99236,1.20958 z m -2.04021,-2.05195 v 0.63358 h -0.56212 v 0.28081 h 0.56212 v 2.18156 c 0,0.35281 0.0556,0.64799 0.20817,0.82799 0.12493,0.16559 0.32615,0.24479 0.56904,0.24479 0.20127,0 0.35393,-0.036 0.46495,-0.0864 l -0.0417,-0.25921 c -0.0832,0.0289 -0.20818,0.0504 -0.38167,0.0504 -0.35392,0 -0.48578,-0.2736 -0.48578,-0.71278 v -2.24639 h 0.95072 v -0.2808 h -0.95072 v -0.76318 z m -3.96251,5.51509 h 0.3331 v -1.98716 h 0.0137 c 0.22899,0.41758 0.65232,0.64079 1.13115,0.64079 0.80499,0 1.51283,-0.63359 1.51283,-1.86477 0,-1.01518 -0.57598,-1.74957 -1.4365,-1.74957 -0.57598,0 -0.98542,0.28081 -1.2283,0.73439 h -0.0137 l -0.021,-0.65519 h -0.31921 c 0.021,0.33121 0.0278,0.66959 0.0278,1.10158 z m 0.3331,-3.46314 c 0,-0.0936 0.0278,-0.20159 0.0486,-0.29519 0.14574,-0.56879 0.61763,-0.91439 1.10341,-0.91439 0.75642,0 1.17279,0.69839 1.17279,1.47599 0,0.92158 -0.4372,1.56235 -1.20055,1.56235 -0.51354,0 -0.95767,-0.34558 -1.09646,-0.87838 -0.021,-0.0864 -0.0278,-0.18 -0.0278,-0.27359 z m -1.18666,0.2736 c 0.0138,-0.0648 0.0138,-0.11518 0.0138,-0.20881 0,-0.49679 -0.20818,-1.56238 -1.2977,-1.56238 -0.86051,0 -1.49895,0.71999 -1.49895,1.87197 0,1.01518 0.5968,1.73517 1.55447,1.73517 0.58293,0 0.92296,-0.1512 1.04788,-0.2232 l -0.0833,-0.26639 c -0.18737,0.0936 -0.43719,0.19439 -0.92296,0.19439 -0.69397,0 -1.26995,-0.43919 -1.26995,-1.54077 z m -2.44275,-0.2736 c 0.0625,-0.53278 0.38168,-1.20958 1.11728,-1.20958 0.80499,0 0.9993,0.7272 0.99236,1.20958 z m -0.95071,1.61278 c -0.18042,0.0864 -0.4372,0.20161 -0.83275,0.20161 -0.7703,0 -1.31852,-0.5904 -1.31852,-1.49757 0,-0.80639 0.45801,-1.51918 1.35321,-1.51918 0.36781,0 0.62456,0.10801 0.78418,0.2016 l 0.11797,-0.28081 c -0.12492,-0.0936 -0.46496,-0.21599 -0.87439,-0.21599 -0.99237,0 -1.71408,0.74879 -1.71408,1.84317 0,1.03678 0.63844,1.76397 1.5961,1.76397 0.48578,0 0.83276,-0.15121 0.97849,-0.2232 z m -3.09506,0 c -0.18042,0.0864 -0.43719,0.20161 -0.83275,0.20161 -0.77029,0 -1.31852,-0.5904 -1.31852,-1.49757 0,-0.80639 0.45801,-1.51918 1.35322,-1.51918 0.3678,0 0.62456,0.10801 0.78417,0.2016 l 0.11797,-0.28081 c -0.12491,-0.0936 -0.46495,-0.21599 -0.87439,-0.21599 -0.99236,0 -1.71407,0.74879 -1.71407,1.84317 0,1.03678 0.63844,1.76397 1.5961,1.76397 0.48577,0 0.83276,-0.15121 0.97848,-0.2232 z m -3.28241,-1.74957 c 0,-0.61199 -0.18737,-1.36078 -1.15197,-1.36078 -0.29839,0 -0.67315,0.0864 -0.97848,0.2952 l 0.1041,0.252 c 0.24289,-0.18001 0.54823,-0.25921 0.83969,-0.25921 0.79111,-0.007 0.85358,0.67679 0.85358,1.01517 v 0.0936 c -1.36017,-0.0142 -2.03331,0.46799 -2.03331,1.26718 0,0.4608 0.30533,0.95038 0.97848,0.95038 0.53436,0 0.90215,-0.30957 1.06871,-0.57598 h 0.0137 l 0.0486,0.49679 h 0.30534 c -0.0417,-0.26639 -0.0486,-0.5472 -0.0486,-0.8208 z m -0.3331,1.06558 c 0,0.0577 -0.007,0.13678 -0.0347,0.20878 -0.11103,0.33838 -0.43026,0.69119 -0.98542,0.69119 -0.34698,0 -0.66621,-0.22321 -0.66621,-0.71998 0,-0.828 0.95766,-0.94319 1.68632,-0.9216 z m -4.91323,-0.59039 0.58986,1.69918 h 0.34006 l -1.67938,-4.85273 h -0.3192 l -1.69327,4.85272 h 0.34006 l 0.57599,-1.69917 z m -1.74183,-0.28799 0.56904,-1.63436 c 0.10411,-0.30958 0.18041,-0.56159 0.2429,-0.84239 h 0.021 c 0.0624,0.2736 0.12493,0.5184 0.2429,0.85679 l 0.56905,1.61996 z m -1.70024,-0.71279 h -1.86675 v -1.86477 h 1.97778 v -0.28799 h -2.31089 v 4.85272 h 2.42193 v -0.28799 h -2.08882 v -2.12396 h 1.86675 z m -3.23378,0 h -1.86675 v -1.86477 h 1.97778 v -0.28799 h -2.31088 v 4.85272 h 2.42192 v -0.28799 h -2.08882 v -2.12396 h 1.86675 z m -4.95487,2.98074 2.22762,-5.21989 h -0.34005 l -2.20679,5.21989 z m -4.024991,-5.1335 v 2.95194 c 0,1.48318 0.742539,1.97997 1.561407,1.97997 0.881326,0 1.658564,-0.54719 1.658564,-2.03756 v -2.89435 h -0.33311 v 2.93035 c 0,1.18798 -0.534347,1.70637 -1.311582,1.70637 -0.687017,0 -1.242175,-0.47519 -1.242175,-1.70637 v -2.93035 z m -1.033976,2.15276 h -1.866751 v -1.86477 h 1.977777 v -0.28799 h -2.310882 v 4.85272 h 2.421917 v -0.28799 h -2.088812 v -2.12396 h 1.866751 z m -4.580131,0.93598 c 0.01378,-0.0648 0.01378,-0.11518 0.01378,-0.20881 0,-0.49679 -0.208181,-1.56238 -1.297705,-1.56238 -0.860509,0 -1.498949,0.71999 -1.498949,1.87197 0,1.01518 0.596807,1.73517 1.554463,1.73517 0.582935,0 0.922967,-0.1512 1.047882,-0.2232 l -0.08332,-0.26639 c -0.187373,0.0936 -0.437195,0.19439 -0.922968,0.19439 -0.693961,0 -1.269952,-0.43919 -1.269952,-1.54077 z m -2.442751,-0.2736 c 0.06238,-0.53278 0.381682,-1.20958 1.117285,-1.20958 0.804988,0 0.999306,0.7272 0.992361,1.20958 z m -3.782044,2.03758 h 0.333096 v -2.10957 c 0,-0.144 0.007,-0.23758 0.0417,-0.3456 0.145741,-0.42479 0.534359,-0.77759 1.006242,-0.77759 0.680081,0 0.916031,0.5616 0.916031,1.18798 v 2.04477 h 0.333105 v -2.08076 c 0,-1.28877 -0.846629,-1.45438 -1.158918,-1.45438 -0.249804,0 -0.478827,0.0721 -0.673136,0.2016 -0.194318,0.11519 -0.353913,0.30241 -0.451076,0.49679 h -0.0137 V 139.21 H 85.39166 Z m -2.019433,-4.08953 v 0.63358 h -0.562108 v 0.28081 h 0.562108 v 2.18156 c 0,0.35281 0.05553,0.64799 0.20818,0.82799 0.124923,0.16559 0.326154,0.24479 0.569048,0.24479 0.201267,0 0.353918,-0.036 0.464954,-0.0864 l -0.04162,-0.25921 c -0.08326,0.0289 -0.208181,0.0504 -0.381679,0.0504 -0.353917,0 -0.485772,-0.27361 -0.485772,-0.71279 v -2.24639 h 0.950726 v -0.2808 h -0.950726 v -0.76318 z m -2.505163,2.32555 c 0.01376,-0.0648 0.01376,-0.11518 0.01376,-0.20881 0,-0.49679 -0.208181,-1.56238 -1.297704,-1.56238 -0.860511,0 -1.498952,0.71999 -1.498952,1.87197 0,1.01518 0.596805,1.73517 1.554466,1.73517 0.582927,0 0.922969,-0.1512 1.047881,-0.2232 l -0.08329,-0.26639 c -0.187366,0.0936 -0.437194,0.19439 -0.922966,0.19439 -0.693959,0 -1.269945,-0.43919 -1.269945,-1.54077 z m -2.442739,-0.2736 c 0.06245,-0.53278 0.381678,-1.20958 1.117274,-1.20958 0.804992,0 0.999301,0.7272 0.992361,1.20958 z M 76.911244,139.21 v 2.18875 h -0.01376 c -0.145737,-0.30241 -0.51353,-0.61199 -1.089516,-0.61199 -0.818872,0 -1.505893,0.72 -1.498952,1.87197 0,1.02959 0.610683,1.74237 1.436494,1.74237 0.617627,0 1.013184,-0.35281 1.186671,-0.73438 h 0.01376 l 0.02787,0.65519 h 0.298388 c -0.021,-0.2448 -0.02787,-0.5472 -0.02787,-0.80639 V 139.21 Z m 0,3.71513 c 0,0.108 -0.0069,0.19439 -0.03475,0.28798 -0.138787,0.5688 -0.589866,0.89998 -1.068699,0.89998 -0.791113,0 -1.165852,-0.71278 -1.165852,-1.49037 0,-0.89278 0.458014,-1.54797 1.186671,-1.54797 0.541291,0 0.936847,0.38159 1.04788,0.84238 0.02787,0.0936 0.03475,0.2232 0.03475,0.31679 z m -3.442029,1.39678 v -3.45595 h -0.333104 v 3.45595 z m -0.166552,-4.74472 c -0.152687,0 -0.270659,0.14399 -0.270659,0.3024 0,0.15842 0.104107,0.2952 0.256758,0.2952 0.173503,0 0.277575,-0.13678 0.277575,-0.2952 0,-0.16558 -0.111022,-0.3024 -0.26371,-0.3024 z m -3.011776,4.57912 c 0.222081,0.14399 0.527409,0.23758 0.846629,0.23758 0.680081,0 1.124218,-0.39599 1.124218,-0.98638 0,-0.52559 -0.319239,-0.80638 -0.860512,-1.02239 -0.451075,-0.19439 -0.68702,-0.3528 -0.68702,-0.71278 0,-0.31679 0.222081,-0.59759 0.645384,-0.59759 0.333103,0 0.548227,0.12239 0.666199,0.20878 l 0.124922,-0.28082 c -0.166551,-0.12239 -0.430254,-0.21599 -0.735596,-0.21599 -0.645381,0 -1.027058,0.4392 -1.027058,0.93599 0,0.41759 0.298388,0.72719 0.846628,0.94318 0.478833,0.20161 0.700899,0.4032 0.700899,0.78479 0,0.35998 -0.249808,0.65519 -0.777234,0.65519 -0.298389,0 -0.569045,-0.1224 -0.749475,-0.23758 z m -1.762665,-3.92393 v 0.63358 h -0.562109 v 0.28081 h 0.562109 v 2.18156 c 0,0.35281 0.05553,0.64799 0.208181,0.82799 0.124922,0.16559 0.326152,0.24479 0.569047,0.24479 0.201266,0 0.353917,-0.036 0.464951,-0.0864 l -0.04163,-0.25921 c -0.08329,0.0289 -0.20818,0.0504 -0.381678,0.0504 -0.353917,0 -0.485772,-0.27361 -0.485772,-0.71279 v -2.24639 h 0.950727 v -0.2808 h -0.950727 v -0.76318 z m -1.242171,0.63358 h -0.333103 v 2.15277 c 0,0.13678 -0.02787,0.27359 -0.06245,0.38159 -0.145737,0.3456 -0.499651,0.69839 -0.985424,0.69839 -0.659262,0 -0.881328,-0.54 -0.881328,-1.28878 v -1.94397 h -0.333103 v 2.00877 c 0,1.30317 0.714778,1.52637 1.138092,1.52637 0.589866,0 0.971544,-0.3744 1.138096,-0.69839 h 0.01376 l 0.021,0.6192 h 0.31229 c -0.021,-0.26639 -0.02787,-0.53999 -0.02787,-0.84239 z m -4.961814,-0.0792 c -0.825811,0 -1.575289,0.65519 -1.575289,1.83597 0,1.07998 0.666202,1.77836 1.52671,1.77836 0.742539,0 1.596111,-0.55439 1.596111,-1.84316 0,-1.05118 -0.624568,-1.77117 -1.547532,-1.77117 z m -0.0069,0.28798 c 0.88133,0 1.221368,0.87118 1.221368,1.50477 0,0.88558 -0.548227,1.53358 -1.242186,1.53358 -0.680081,0 -1.214431,-0.648 -1.214431,-1.51197 0,-0.7416 0.381677,-1.52638 1.235249,-1.52638 z m -8.494085,3.24716 h 0.333103 v -2.13117 c 0,-0.11518 0.021,-0.23759 0.04858,-0.33118 0.124923,-0.40318 0.478833,-0.77757 0.922969,-0.77757 0.541287,0 0.82581,0.45358 0.82581,1.07998 v 2.15995 h 0.333103 v -2.21761 c 0,-0.12239 0.02787,-0.23758 0.05553,-0.33839 0.131837,-0.36718 0.458014,-0.68398 0.874389,-0.68398 0.575988,0 0.867447,0.46079 0.867447,1.23838 v 2.00156 h 0.333103 v -2.03756 c 0,-1.31038 -0.763357,-1.49758 -1.089517,-1.49758 -0.353917,0 -0.575987,0.1008 -0.791114,0.28799 -0.124922,0.10801 -0.249845,0.25921 -0.340052,0.46799 h -0.01376 c -0.145737,-0.4392 -0.499651,-0.75599 -0.957662,-0.75599 -0.548229,0 -0.86745,0.29519 -1.082577,0.69118 h -0.01376 l -0.021,-0.61199 h -0.312287 c 0.021,0.27362 0.02786,0.5112 0.02786,0.828 z m -2.394163,-3.53514 c -0.82581,0 -1.575289,0.65519 -1.575289,1.83597 0,1.07998 0.666204,1.77836 1.526714,1.77836 0.742536,0 1.596107,-0.55439 1.596107,-1.84316 0,-1.05118 -0.624563,-1.77117 -1.547532,-1.77117 z m -0.0069,0.28798 c 0.881328,0 1.22137,0.87118 1.22137,1.50477 0,0.88558 -0.54823,1.53358 -1.242189,1.53358 -0.680081,0 -1.214428,-0.648 -1.214428,-1.51197 0,-0.7416 0.381679,-1.52638 1.235247,-1.52638 z M 48.1529,144.3219 h 0.333104 v -1.90797 c 0,-0.11519 0.0069,-0.23041 0.02787,-0.33121 0.09021,-0.55439 0.416375,-0.96478 0.87439,-0.96478 0.06245,0 0.111022,0 0.159601,0.0142 v -0.33118 c -0.04162,-0.007 -0.09021,-0.0142 -0.138787,-0.0142 -0.451072,0 -0.798053,0.3456 -0.943783,0.77759 h -0.021 l -0.01376,-0.69839 h -0.305338 c 0.021,0.33838 0.02788,0.69119 0.02788,1.03678 z m -1.457294,0 v -3.17515 h 0.888268 v -0.28081 h -0.888268 v -0.19439 c 0,-0.66239 0.124923,-1.25277 0.749478,-1.25277 0.201267,0 0.326153,0.0433 0.423315,0.0936 l 0.104108,-0.26638 c -0.104108,-0.0577 -0.284524,-0.11519 -0.499651,-0.11519 -0.26371,0 -0.534347,0.0936 -0.742536,0.3024 -0.270659,0.28082 -0.367799,0.7128 -0.367799,1.24558 v 0.18718 h -0.478832 v 0.28082 h 0.478832 v 3.17514 z m -4.718915,-0.16558 c 0.22208,0.14398 0.527412,0.23756 0.846631,0.23756 0.680082,0 1.124214,-0.39598 1.124214,-0.98637 0,-0.52558 -0.319203,-0.80638 -0.860511,-1.02238 -0.451071,-0.1944 -0.687016,-0.3528 -0.687016,-0.71279 0,-0.31679 0.22208,-0.59759 0.645381,-0.59759 0.333102,0 0.548229,0.1224 0.666201,0.20878 l 0.124923,-0.28082 c -0.166552,-0.12239 -0.430253,-0.21598 -0.735596,-0.21598 -0.645384,0 -1.027062,0.43919 -1.027062,0.93598 0,0.41759 0.298388,0.72719 0.846632,0.94319 0.478833,0.20161 0.700899,0.40319 0.700899,0.78478 0,0.35998 -0.249845,0.6552 -0.777235,0.6552 -0.298388,0 -0.569048,-0.1224 -0.749478,-0.23759 z M 40.783084,139.21 v 2.18875 h -0.01376 c -0.145737,-0.3024 -0.51353,-0.61198 -1.089516,-0.61198 -0.818872,0 -1.505893,0.71999 -1.498952,1.87196 0,1.02958 0.610683,1.74238 1.436497,1.74238 0.617623,0 1.01318,-0.35281 1.186671,-0.73439 h 0.01376 l 0.02787,0.65519 h 0.298388 c -0.021,-0.2448 -0.02788,-0.54719 -0.02788,-0.80639 V 139.21 Z m 0,3.71513 c 0,0.10801 -0.0069,0.1944 -0.03475,0.28798 -0.138787,0.56879 -0.589866,0.89998 -1.068699,0.89998 -0.791114,0 -1.165849,-0.71277 -1.165849,-1.49036 0,-0.89279 0.458011,-1.54798 1.186671,-1.54798 0.541287,0 0.936843,0.3816 1.047877,0.84239 0.02787,0.0936 0.03475,0.22319 0.03475,0.31678 z m -4.303931,1.39678 h 0.333103 v -1.90797 c 0,-0.11519 0.0069,-0.23042 0.02787,-0.33121 0.09021,-0.55439 0.416376,-0.96478 0.87439,-0.96478 0.06245,0 0.111022,0 0.159601,0.0142 v -0.33118 c -0.04162,-0.007 -0.09021,-0.0142 -0.138786,-0.0142 -0.451072,0 -0.798054,0.3456 -0.943784,0.77759 h -0.021 l -0.01376,-0.69839 h -0.305338 c 0.021,0.33838 0.02787,0.6912 0.02787,1.03678 z m -1.068684,-2.17437 c 0,-0.61198 -0.187365,-1.36077 -1.151974,-1.36077 -0.298388,0 -0.673142,0.0864 -0.978484,0.2952 l 0.104095,0.25199 c 0.242883,-0.18001 0.548229,-0.25921 0.839692,-0.25921 0.791115,-0.007 0.853569,0.6768 0.853569,1.01518 v 0.0936 c -1.360161,-0.0143 -2.033302,0.468 -2.033302,1.26719 0,0.46079 0.305342,0.95038 0.978485,0.95038 0.534347,0 0.902147,-0.30958 1.068696,-0.57599 h 0.01376 l 0.04858,0.49679 h 0.305339 c -0.04162,-0.26639 -0.04858,-0.54719 -0.04858,-0.82079 z m -0.333102,1.06559 c 0,0.0577 -0.0069,0.13678 -0.03475,0.20877 -0.111022,0.33839 -0.430257,0.69119 -0.985423,0.69119 -0.346981,0 -0.666201,-0.2232 -0.666201,-0.71998 0,-0.828 0.957665,-0.94319 1.686321,-0.92159 z m -2.630098,0.68398 c -0.180431,0.0864 -0.437195,0.20161 -0.832753,0.20161 -0.770294,0 -1.318522,-0.5904 -1.318522,-1.49757 0,-0.80639 0.458014,-1.51917 1.353221,-1.51917 0.367799,0 0.624564,0.10801 0.784174,0.2016 l 0.117973,-0.28082 c -0.124912,-0.0936 -0.464954,-0.21598 -0.87439,-0.21598 -0.992361,0 -1.71408,0.74878 -1.71408,1.84316 0,1.03679 0.638443,1.76397 1.596107,1.76397 0.485771,0 0.832752,-0.1512 0.978484,-0.2232 z m -4.802185,-1.74957 c 0,-0.61199 -0.187369,-1.36078 -1.151972,-1.36078 -0.298403,0 -0.673141,0.0864 -0.978484,0.2952 l 0.104094,0.25199 c 0.242885,-0.18001 0.548229,-0.25921 0.839691,-0.25921 0.791114,-0.007 0.853571,0.6768 0.853571,1.01518 v 0.0936 c -1.360161,-0.0142 -2.033302,0.46799 -2.033302,1.26717 0,0.4608 0.305342,0.95039 0.978483,0.95039 0.534349,0 0.902148,-0.30958 1.068698,-0.57599 h 0.01387 l 0.04858,0.49679 h 0.305341 c -0.04162,-0.26637 -0.04857,-0.54717 -0.04857,-0.82077 z m -0.333098,1.06558 c 0,0.0577 -0.007,0.13678 -0.03472,0.20878 -0.111033,0.33838 -0.430254,0.69118 -0.985422,0.69118 -0.346978,0 -0.666201,-0.2232 -0.666201,-0.71998 0,-0.82799 0.957664,-0.94319 1.686321,-0.92159 z m -4.587067,0.94319 c 0.222067,0.14398 0.527409,0.23757 0.846631,0.23757 0.68008,0 1.124215,-0.39598 1.124215,-0.98638 0,-0.52558 -0.319221,-0.80638 -0.86051,-1.02238 -0.451075,-0.19439 -0.687021,-0.3528 -0.687021,-0.71279 0,-0.31679 0.222067,-0.59759 0.645383,-0.59759 0.333099,0 0.548227,0.1224 0.666201,0.20878 l 0.124912,-0.28082 c -0.166551,-0.12238 -0.430254,-0.21598 -0.735597,-0.21598 -0.645382,0 -1.02706,0.4392 -1.02706,0.93598 0,0.41759 0.298402,0.72719 0.846631,0.94319 0.478831,0.20161 0.700899,0.4032 0.700899,0.78478 0,0.35998 -0.249828,0.6552 -0.777235,0.6552 -0.298403,0 -0.569047,-0.1224 -0.749477,-0.23758 z m -0.860528,0.16558 v -3.45595 H 21.53129 v 3.45595 z m -0.166553,-4.74471 c -0.152669,0 -0.270645,0.14399 -0.270645,0.30239 0,0.15842 0.104094,0.2952 0.256767,0.2952 0.173491,0 0.277584,-0.13678 0.277584,-0.2952 0,-0.16558 -0.111032,-0.30239 -0.263706,-0.30239 z m -2.330981,4.74472 1.734899,-4.85272 h -0.353921 l -0.909087,2.59916 c -0.242885,0.68399 -0.458014,1.31037 -0.596806,1.85756 h -0.02083 c -0.131853,-0.53998 -0.326161,-1.15197 -0.548229,-1.85756 l -0.825812,-2.59916 h -0.346898 l 1.554469,4.85272 z m -4.052735,0 h 0.333098 v -5.11192 h -0.333098 z m -1.471191,0 h 0.333098 v -5.11192 h -0.333023 z m -1.651614,-1.69917 0.589866,1.69917 h 0.340039 l -1.679381,-4.85272 H 11.12262 l -1.6932621,4.85272 h 0.3400397 l 0.5759854,-1.69917 z m -1.741838,-0.28799 0.569047,-1.63436 c 0.104094,-0.30959 0.18043,-0.5616 0.242887,-0.84239 h 0.02082 c 0.06246,0.2736 0.124911,0.51839 0.242884,0.85679 l 0.569047,1.61996 z"
stroke-width="0.08"
stroke="#1A1F71"
fill="#1A1F71" />
<path d="m 119.06786,122.17056 v 4.12493 h -0.0289 c -0.31808,-0.53999 -1.01203,-0.94498 -1.98068,-0.94498 -1.69154,0 -3.16621,1.45498 -3.15176,3.89994 0,2.24997 1.3301,3.73495 3.02163,3.73495 1.01204,0 1.86504,-0.51 2.2843,-1.31999 h 0.0289 l 0.0867,1.15499 h 1.57587 c -0.0289,-0.49499 -0.0578,-1.30497 -0.0578,-2.05498 v -8.59486 z m 0,7.48489 c 0,0.19499 -0.0145,0.375 -0.0579,0.54 -0.1735,0.79498 -0.80962,1.30497 -1.53249,1.30497 -1.12768,0 -1.76382,-0.97498 -1.76382,-2.32497 0,-1.34998 0.63614,-2.39996 1.77828,-2.39996 0.80962,0 1.37346,0.58499 1.53249,1.28999 0.029,0.15 0.0434,0.34499 0.0434,0.49498 z m -6.20227,0.03 c 0.0289,-0.16498 0.0578,-0.43499 0.0578,-0.77998 0,-1.60499 -0.7518,-3.55496 -3.03608,-3.55496 -2.25538,0 -3.44091,1.90497 -3.44091,3.92994 0,2.23498 1.34456,3.68995 3.62885,3.68995 1.01203,0 1.85056,-0.19499 2.45779,-0.46499 l -0.26024,-1.25999 c -0.54938,0.195 -1.12769,0.33002 -1.95177,0.33002 -1.14214,0 -2.12526,-0.56999 -2.16863,-1.88997 z m -4.71316,-1.28998 c 0.0723,-0.74998 0.53493,-1.78498 1.6337,-1.78498 1.18552,0 1.47467,1.10999 1.46022,1.78498 z m -5.95794,-4.24494 v 1.36499 h -0.99757 v 1.37997 h 0.99757 v 3.43495 c 0,0.95999 0.1735,1.63498 0.56384,2.05497 0.33252,0.375 0.86746,0.59999 1.5325,0.59999 0.54939,0 1.02649,-0.09 1.28672,-0.19499 l -0.0289,-1.39498 c -0.20242,0.06 -0.3759,0.0749 -0.69396,0.0749 -0.67951,0 -0.91082,-0.44999 -0.91082,-1.34997 v -3.22495 h 1.69153 v -1.37999 h -1.69153 v -1.87498 z m -8.746801,11.63984 h 1.778277 v -3.77994 h 0.02888 c 0.36145,0.58498 1.098771,0.97497 1.980682,0.97497 1.604793,0 3.209572,-1.27498 3.209572,-3.91494 0,-2.27997 -1.34454,-3.71995 -2.963789,-3.71995 -1.06986,0 -1.893936,0.46499 -2.414414,1.28998 h -0.02888 l -0.08672,-1.12497 h -1.561416 c 0.02888,0.68998 0.05784,1.46997 0.05784,2.42995 z m 1.778277,-7.1549 c 0,-0.15001 0.02888,-0.31499 0.05784,-0.46499 0.187941,-0.81 0.867455,-1.36499 1.604785,-1.36499 1.142141,0 1.749365,1.04998 1.749365,2.33997 0,1.43998 -0.665041,2.41496 -1.792742,2.41496 -0.766243,0 -1.387924,-0.53998 -1.575864,-1.28999 -0.02888,-0.16498 -0.04336,-0.33 -0.04336,-0.50998 z m -3.267386,1.04998 c 0.02888,-0.16498 0.05784,-0.43499 0.05784,-0.77998 0,-1.60499 -0.751796,-3.55496 -3.036086,-3.55496 -2.255377,0 -3.440895,1.90497 -3.440895,3.92994 0,2.23498 1.344546,3.68995 3.628844,3.68995 1.012035,0 1.850559,-0.19499 2.457783,-0.46499 l -0.26023,-1.25999 c -0.549382,0.195 -1.127693,0.33002 -1.95177,0.33002 -1.142141,0 -2.125262,-0.56999 -2.168631,-1.88997 z m -4.713151,-1.29002 c 0.07224,-0.74999 0.534917,-1.78498 1.633697,-1.78498 1.185518,0 1.47467,1.10998 1.460213,1.78498 z m -2.687659,2.83495 c -0.346968,0.15 -0.795165,0.28498 -1.402381,0.28498 -1.214432,0 -2.154175,-0.85498 -2.154175,-2.35497 -0.01447,-1.33498 0.795165,-2.36996 2.154175,-2.36996 0.636131,0 1.055398,0.13498 1.344552,0.28498 l 0.318081,-1.39498 c -0.404813,-0.18 -1.06986,-0.33001 -1.72045,-0.33001 -2.472238,0 -3.917991,1.69497 -3.917991,3.88495 0,2.26496 1.431296,3.73494 3.628841,3.73494 0.881912,0 1.619244,-0.19499 1.995142,-0.375 z m -6.361303,0 c -0.346967,0.15 -0.795165,0.28498 -1.402384,0.28498 -1.214432,0 -2.154172,-0.85498 -2.154172,-2.35497 -0.01447,-1.33498 0.795165,-2.36996 2.154172,-2.36996 0.636131,0 1.055402,0.13498 1.344553,0.28498 l 0.31808,-1.39498 c -0.40481,-0.18 -1.069857,-0.33001 -1.720447,-0.33001 -2.47224,0 -3.917995,1.69497 -3.917995,3.88495 0,2.26496 1.431297,3.73494 3.628845,3.73494 0.881909,0 1.619242,-0.19499 1.995138,-0.375 z m -6.809482,-2.78996 c 0,-1.60497 -0.65059,-3.08995 -2.905966,-3.08995 -1.113231,0 -2.024055,0.31499 -2.544527,0.645 l 0.346967,1.19997 c 0.477098,-0.31498 1.199974,-0.53999 1.893937,-0.53999 1.243348,0 1.431296,0.79498 1.431296,1.27498 v 0.12 c -2.602358,-0.015 -4.17823,0.92998 -4.17823,2.75996 0,1.10997 0.795166,2.17496 2.212004,2.17496 0.925286,0 1.662618,-0.40499 2.081889,-0.97499 h 0.04336 l 0.130101,0.80999 h 1.604786 c -0.08673,-0.44999 -0.115655,-1.09497 -0.115655,-1.75497 z m -1.734904,1.81498 c 0,0.13501 0,0.27 -0.04337,0.40499 -0.173502,0.525 -0.679506,1.00498 -1.402381,1.00498 -0.563846,0 -1.012029,-0.33 -1.012029,-1.04997 0,-1.11 1.199978,-1.37999 2.457783,-1.36499 z m -13.185262,2.20496 c 0.52047,0.30002 1.286722,0.51 2.139715,0.51 1.865025,0 2.862596,-0.95998 2.862596,-2.29497 -0.01447,-1.07999 -0.592762,-1.75497 -1.879483,-2.21997 -0.896366,-0.34499 -1.228889,-0.55499 -1.228889,-1.01998 0,-0.44999 0.346966,-0.77999 0.983112,-0.77999 0.621674,0 1.199975,0.23999 1.489128,0.42 l 0.361447,-1.28999 c -0.419267,-0.23998 -1.098772,-0.43499 -1.879479,-0.43499 -1.633703,0 -2.660186,0.98999 -2.660186,2.27996 0,0.87 0.563842,1.64998 1.937311,2.12998 0.86745,0.33001 1.1566,0.56999 1.1566,1.06498 0,0.47999 -0.346967,0.82498 -1.127689,0.82498 -0.636131,0 -1.40238,-0.28497 -1.792735,-0.53998 z m -3.252928,-10.28985 v 4.12494 h -0.02896 c -0.318081,-0.53999 -1.012026,-0.94498 -1.980681,-0.94498 -1.691534,0 -3.166205,1.45498 -3.151747,3.89994 0,2.24997 1.330096,3.73494 3.02163,3.73494 1.012025,0 1.865021,-0.50999 2.284288,-1.31998 h 0.02896 l 0.08673,1.15499 h 1.575872 c -0.02896,-0.49499 -0.05785,-1.30497 -0.05785,-2.05498 v -8.59487 z m 0,7.4849 c 0,0.19499 -0.01447,0.375 -0.05785,0.54 -0.173502,0.79498 -0.809622,1.30497 -1.532502,1.30497 -1.127688,0 -1.763819,-0.97498 -1.763819,-2.32497 0,-1.34998 0.636131,-2.39996 1.778277,-2.39996 0.809623,0 1.373465,0.58499 1.532498,1.28998 0.02896,0.15001 0.04337,0.345 0.04337,0.49499 z m -9.729932,3.16495 h 1.778278 v -3.79494 c 0,-0.195 0.01447,-0.39 0.04337,-0.55499 0.159022,-0.84 0.751791,-1.39498 1.590329,-1.39498 0.216867,0 0.375897,0.015 0.53493,0.045 v -1.72498 c -0.144579,-0.03 -0.245791,-0.045 -0.41927,-0.045 -0.766249,0 -1.59033,0.52498 -1.937308,1.54498 h -0.04337 l -0.07229,-1.37999 H 43.42613 c 0.04337,0.645 0.05785,1.36498 0.05785,2.35497 z m -1.879458,-4.37994 c 0,-1.60497 -0.65059,-3.08995 -2.905966,-3.08995 -1.11323,0 -2.024055,0.31499 -2.544526,0.645 l 0.346966,1.19997 c 0.477099,-0.31498 1.199977,-0.53999 1.893937,-0.53999 1.243352,0 1.431297,0.79498 1.431297,1.27498 v 0.12 c -2.602355,-0.015 -4.17823,0.92998 -4.17823,2.75996 0,1.10997 0.795164,2.17496 2.212007,2.17496 0.925282,0 1.662615,-0.40499 2.081886,-0.97499 h 0.04336 l 0.130135,0.80999 h 1.604787 c -0.08673,-0.44999 -0.115655,-1.09497 -0.115655,-1.75497 z m -1.734904,1.81498 c 0,0.13501 0,0.27 -0.04336,0.40499 -0.173502,0.525 -0.679502,1.00498 -1.402381,1.00498 -0.563843,0 -1.012029,-0.33 -1.012029,-1.04997 0,-1.11 1.199978,-1.37999 2.457784,-1.36499 z m -5.291463,0.97498 c -0.346968,0.15 -0.795164,0.28498 -1.402381,0.28498 -1.214434,0 -2.154174,-0.85498 -2.154174,-2.35497 -0.01444,-1.33498 0.795165,-2.36996 2.154174,-2.36996 0.636131,0 1.055398,0.13498 1.344552,0.28498 l 0.318081,-1.39498 c -0.404813,-0.18 -1.06986,-0.33001 -1.720449,-0.33001 -2.47224,0 -3.917993,1.69497 -3.917993,3.88495 0,2.26496 1.431296,3.73494 3.628843,3.73494 0.881909,0 1.619243,-0.19499 1.995141,-0.375 z m 70.335776,-22.6796 v 1.36499 h -0.99758 v 1.37997 h 0.99758 v 3.43495 c 0,0.95999 0.1735,1.63498 0.56385,2.05497 0.33252,0.37501 0.86744,0.59999 1.53249,0.59999 0.54939,0 1.02649,-0.09 1.28673,-0.19499 l -0.0289,-1.39498 c -0.20239,0.06 -0.3759,0.075 -0.69398,0.075 -0.67949,0 -0.91081,-0.44999 -0.91081,-1.34998 v -3.22496 h 1.69153 v -1.37998 h -1.69149 v -1.87498 z m -2.21197,8.66987 v -7.30488 h -1.77827 v 7.30488 z m -0.8819,-10.34984 c -0.59276,0 -0.99757,0.43498 -0.99757,1.00498 0,0.54 0.39035,0.98999 0.98311,0.98999 0.62167,0 1.01203,-0.44999 1.01203,-0.98999 -0.0145,-0.57 -0.39036,-1.00498 -0.99757,-1.00498 z m -9.354016,8.29487 c 0,0.75001 -0.02888,1.55999 -0.05784,2.05497 h 1.518048 l 0.08672,-1.09498 h 0.02888 c 0.506022,0.89999 1.315642,1.25998 2.226465,1.25998 1.590329,0 3.195122,-1.30498 3.195122,-3.92994 0.01448,-2.21997 -1.214439,-3.70494 -2.934883,-3.70494 -1.055403,0 -1.821646,0.46499 -2.255377,1.16998 h -0.02888 v -4.34995 h -1.778277 z m 1.778277,-2.14497 c 0,-0.18001 0.02888,-0.34499 0.05784,-0.47999 0.187949,-0.80998 0.852989,-1.34998 1.575872,-1.34998 1.185509,0 1.778277,1.04999 1.778277,2.33997 0,1.48498 -0.679505,2.39997 -1.792733,2.39997 -0.766252,0 -1.387924,-0.53999 -1.575881,-1.28999 -0.02888,-0.13501 -0.04336,-0.28497 -0.04336,-0.43499 z m -3.267385,1.06499 c 0.02888,-0.16499 0.05784,-0.43499 0.05784,-0.77999 0,-1.60498 -0.751795,-3.55494 -3.036094,-3.55494 -2.255378,0 -3.440889,1.90496 -3.440889,3.92994 0,2.23498 1.344548,3.68994 3.628847,3.68994 1.012025,0 1.850558,-0.19498 2.457782,-0.46499 l -0.260239,-1.25998 c -0.549381,0.195 -1.127693,0.33001 -1.951761,0.33001 -1.142149,0 -2.125262,-0.57 -2.168631,-1.88998 z m -4.713161,-1.28997 c 0.07224,-0.75 0.534926,-1.78498 1.633698,-1.78498 1.185527,0 1.474678,1.10998 1.460222,1.78498 z m -11.060005,4.39492 c 0.592758,0.075 1.373465,0.13503 2.399951,0.13503 1.893939,0 3.440897,-0.465 4.409552,-1.37999 0.925282,-0.86998 1.51804,-2.20496 1.51804,-4.01994 0,-1.70998 -0.5783,-2.92495 -1.532498,-3.71995 -0.896369,-0.77998 -2.139717,-1.16998 -3.961368,-1.16998 -1.055399,0 -2.038512,0.09 -2.833677,0.20998 z m 1.778278,-8.60986 c 0.260234,-0.06 0.650589,-0.10502 1.214432,-0.10502 2.226461,0 3.469812,1.28999 3.455354,3.50996 0,2.56496 -1.373468,3.89994 -3.686672,3.88494 -0.361448,0 -0.737338,0 -0.983114,-0.045 z m -12.91058,1.33498 2.587901,6.7049 c 0.07229,0.18 0.08673,0.28497 0.08673,0.35997 0,0.09 -0.02896,0.195 -0.101212,0.33001 -0.24579,0.495 -0.636131,0.93 -0.983113,1.15498 -0.361447,0.27 -0.722876,0.43501 -1.026484,0.51 l 0.40481,1.54498 c 0.433725,-0.06 1.156604,-0.29999 1.865025,-0.92998 0.824077,-0.74999 1.474667,-1.96498 2.443321,-4.69494 l 1.76382,-4.97992 h -1.893937 l -1.098772,3.89993 c -0.144579,0.465 -0.274677,1.01999 -0.375897,1.42498 h -0.04337 c -0.101212,-0.40499 -0.260234,-0.95998 -0.404813,-1.40998 l -1.257805,-3.91493 z m -2.877024,7.30488 h 1.778277 V 106.5708 h -1.778277 z m -8.269712,0 h 1.778278 v -4.30493 c 0,-0.20998 0.02896,-0.435 0.08673,-0.58499 0.187945,-0.555 0.679505,-1.07999 1.387922,-1.07999 0.968656,0 1.344553,0.79499 1.344553,1.84497 v 4.12494 h 1.778278 v -4.33492 c 0,-2.30998 -1.272264,-3.13496 -2.501157,-3.13496 -1.171058,0 -1.937311,0.68998 -2.255377,1.25998 h -0.04337 l -0.08673,-1.09498 h -1.546955 c 0.02896,0.62998 0.05785,1.33497 0.05785,2.17496 z m -6.0143,-10.28985 c -2.746933,0 -4.640873,2.18997 -4.640873,5.30993 0,2.95496 1.734907,5.14492 4.496295,5.14492 2.674647,0 4.655328,-1.93497 4.655328,-5.32492 0,-2.89496 -1.677073,-5.12993 -4.51075,-5.12993 z m -0.05785,1.48499 c 1.778277,0 2.689102,1.79997 2.689102,3.70494 0,2.11497 -0.968656,3.77995 -2.689102,3.77995 -1.705989,0 -2.70356,-1.63498 -2.70356,-3.70496 0,-2.08496 0.93974,-3.77993 2.70356,-3.77993 z"
fill="#1A1F71" />
</svg>
